<?xml version="1.0" standalone="no"?>
<!DOCTYPE svg PUBLIC "-//W3C//DTD SVG 1.1//EN" "http://www.w3.org/Graphics/SVG/1.1/DTD/svg11.dtd" >
<svg xmlns="http://www.w3.org/2000/svg" xmlns:xlink="http://www.w3.org/1999/xlink" version="1.1">
<metadata>
Created by FontForge 20170731 at Wed Sep 20 01:00:58 2017
 By Aleksey,,,
Copyright 2016 Google Inc. All Rights Reserved.
</metadata>
<defs>
<font id="NotoSansThai-Bold" horiz-adv-x="0" >
  <font-face 
    font-family="Noto Sans Thai"
    font-weight="700"
    font-stretch="normal"
    units-per-em="1000"
    panose-1="2 11 8 2 4 5 4 2 2 4"
    ascent="800"
    descent="-200"
    bbox="-736 -448 906 1037"
    underline-thickness="50"
    underline-position="-175"
    unicode-range="U+000D-25CC"
  />
<missing-glyph horiz-adv-x="364" 
d="M33 0v666h265v-666h-265zM66 33h199v600h-199v-600z" />
    <glyph glyph-name="ru_lakkhangyao-thai" unicode="&#xe24;&#xe45;" horiz-adv-x="964" 
d="M405 -212v550q0 52 -26.5 77.5t-75.5 25.5q-47 0 -70 -19.5t-24 -47.5l87 -40l-10 -64q-37 -1 -56 -17.5t-19 -57.5v-61q0 -41 40 -41q20 0 35 6l14 -89q-38 -20 -94 -20q-64 0 -102.5 31.5t-38.5 96.5v61q0 59 25.5 89t72.5 44l1 4l-109 39v26q0 49 28.5 90t82.5 65.5
t130 24.5q72 0 119.5 -23t72.5 -66h4q22 42 70 65.5t117 23.5q109 0 162 -56t53 -149v-568h-150v549q0 54 -25 79t-69 25q-45 0 -70 -25.5t-25 -80.5v-547h-150z" />
    <glyph glyph-name="lu_lakkhangyao-thai" unicode="&#xe26;&#xe45;" horiz-adv-x="976" 
d="M417 -212v550q0 52 -26.5 77.5t-75.5 25.5q-47 0 -70 -19.5t-24 -47.5l87 -39l-11 -65q-57 0 -57 -78v-84q0 -64 -35.5 -91t-90.5 -27q-28 0 -51 5.5t-41 15.5l14 83q12 -4 26 -4q32 0 32 35v73q0 49 20 76.5t61 37.5l1 4l-109 39v26q0 49 28 90t83 65.5t135 24.5
q69 0 117 -23t70 -66h3q23 42 71 65.5t116 23.5q110 0 163 -56t53 -149v-568h-150v549q0 54 -25.5 79t-69.5 25t-69 -25.5t-25 -80.5v-547h-150z" />
    <glyph glyph-name=".notdef" horiz-adv-x="364" 
d="M33 0v666h265v-666h-265zM66 33h199v600h-199v-600z" />
    <glyph glyph-name=".null" 
 />
    <glyph glyph-name="nonmarkingreturn" horiz-adv-x="333" 
 />
    <glyph glyph-name="NULL" 
 />
    <glyph glyph-name="NULL" 
 />
    <glyph glyph-name="CR" unicode="&#xd;" horiz-adv-x="260" 
 />
    <glyph glyph-name="space" unicode=" " horiz-adv-x="260" 
 />
    <glyph glyph-name="hyphen" unicode="-" horiz-adv-x="322" 
d="M30 207v122h262v-122h-262z" />
    <glyph glyph-name="uni00A0" unicode="&#xa0;" horiz-adv-x="260" 
 />
    <glyph glyph-name="uni02BC" unicode="&#x2bc;" horiz-adv-x="217" 
d="M202 714l7 -11q-13 -53 -35.5 -116t-45.5 -118h-114q14 59 26.5 126t19.5 119h142z" />
    <glyph glyph-name="uni02D7" unicode="&#x2d7;" horiz-adv-x="218" 
d="M206 244h-194v62h194v-62z" />
    <glyph glyph-name="tildecomb" unicode="&#x303;" 
d="M-120 757q-6 -77 -39 -114t-80 -37q-27 0 -52.5 12.5t-50 25.5t-47.5 13q-11 0 -22.5 -13t-16.5 -39h-76q6 78 38 114.5t82 36.5q24 0 49.5 -13t50.5 -25.5t48 -12.5q11 0 22.5 13t16.5 39h77z" />
    <glyph glyph-name="uni0331" unicode="&#x331;" 
d="M-120 -76v-103h-322v103h322z" />
    <glyph glyph-name="uni0E01" unicode="&#xe01;" horiz-adv-x="624" 
d="M65 0v167q0 63 24.5 97t71.5 48l1 4l-107 39v26q0 49 29 90t85.5 65.5t137.5 24.5q113 0 180 -52.5t67 -158.5v-350h-150v341q0 50 -26.5 75t-74.5 25q-47 0 -70 -19.5t-24 -47.5l89 -41l-11 -65q-36 -2 -54 -26t-18 -65v-177h-150z" />
    <glyph glyph-name="uni0E02" unicode="&#xe02;" horiz-adv-x="592" 
d="M295 -13q-112 0 -169 50t-57 146v40q0 41 11 67.5t27 48.5t26.5 39.5t10.5 36.5q0 18 -9 25.5t-22 7.5q-19 0 -44 -12l-24 94q28 15 60.5 20.5t57.5 5.5q66 0 93.5 -31.5t27.5 -84.5q0 -31 -9 -54.5t-23 -48.5q-14 -23 -24 -43t-10 -58v-40q0 -49 20.5 -70.5t57.5 -21.5
q77 0 77 87v357h149v-361q0 -99 -58 -149.5t-169 -50.5z" />
    <glyph glyph-name="uni0E03" unicode="&#xe03;" horiz-adv-x="601" 
d="M301 -13q-118 0 -174.5 52t-56.5 147v33q0 47 17 80t48 68q10 11 21.5 25t12.5 27l-3 1q-20 -11 -43 -11q-37 0 -60.5 26.5t-23.5 76.5v36h107q0 -28 6.5 -40t22.5 -12q7 0 17 3t19 11l17 38h79v-67q0 -32 -3.5 -53t-12.5 -38.5t-24 -38.5q-13 -19 -23.5 -33.5t-17 -33.5
t-6.5 -50v-36q0 -50 21.5 -72t59.5 -22q42 0 61.5 23t19.5 64v357h149v-361q0 -99 -58.5 -149.5t-171.5 -50.5z" />
    <glyph glyph-name="uni0E04" unicode="&#xe04;" horiz-adv-x="646" 
d="M70 0v325q0 115 61 175.5t193 60.5q133 0 192.5 -60.5t59.5 -175.5v-325h-149v327q0 53 -24.5 83.5t-80.5 30.5q-55 0 -79.5 -30.5t-24.5 -83.5v-87l3 -1q19 39 45 51.5t73 12.5h23v-112h-23q-50 0 -76 -17t-35.5 -44.5t-9.5 -61.5v-68h-148z" />
    <glyph glyph-name="uni0E05" unicode="&#xe05;" horiz-adv-x="658" 
d="M70 0v422q0 70 39 104.5t104 34.5q43 0 73 -15.5t40 -47.5h5q11 32 41 47.5t73 15.5q65 0 104 -34.5t39 -104.5v-422h-149v384q0 32 -11.5 44t-28.5 12q-39 0 -42 -50h-58q-4 50 -42 50q-17 0 -28.5 -12t-11.5 -44v-144l3 -1q20 39 47 51.5t79 12.5h24v-112h-24
q-54 0 -81.5 -17t-37 -44.5t-9.5 -61.5v-68h-148z" />
    <glyph glyph-name="uni0E06" unicode="&#xe06;" horiz-adv-x="639" 
d="M388 -10q-70 0 -115.5 27t-62.5 69h-9l-16 -86h-111v212q0 50 15.5 85t47.5 70l24.5 28t11.5 24l-3 1q-20 -11 -43 -11q-37 0 -60.5 26.5t-23.5 76.5v36h107q0 -28 7 -40t22 -12q8 0 18 3t19 11l16 38h84v-67q0 -28 -3.5 -48t-12.5 -39t-26 -43q-14 -21 -25.5 -36
t-18 -32t-6.5 -44v-7q0 -51 29 -81.5t80 -30.5q41 0 63.5 24t22.5 81v323h150v-356q0 -98 -46.5 -150t-134.5 -52z" />
    <glyph glyph-name="uni0E07" unicode="&#xe07;" horiz-adv-x="571" 
d="M164 0l-159 548h151l121 -427h6q16 0 29.5 9t24.5 24q19 28 29.5 66.5t10.5 76.5q0 67 -25.5 103t-70.5 36q-9 0 -16.5 -1t-13.5 -4l-28 115q23 7 43 8.5t34 1.5q53 0 92 -14t67 -42q70 -70 70 -200q0 -81 -25.5 -141.5t-61.5 -95.5q-30 -29 -75.5 -46t-124.5 -17h-78z
" />
    <glyph glyph-name="uni0E08" unicode="&#xe08;" horiz-adv-x="559" 
d="M115 0v230h-57v92h192v-208h7q49 0 76.5 40t27.5 121q0 93 -39 130t-114 37q-52 0 -94 -14.5t-75 -34.5v125q33 17 83 30t115 13q145 0 210.5 -70.5t65.5 -212.5q0 -134 -61.5 -206t-209.5 -72h-127z" />
    <glyph glyph-name="uni0E09" unicode="&#xe09;" horiz-adv-x="623" 
d="M247 -10q-83 0 -127.5 41.5t-44.5 134.5v147h144v-103q0 -47 20.5 -69t58.5 -22q49 0 77 32.5t28 91.5v79q0 68 -36 94t-98 26q-53 0 -99 -15t-81 -34v125q32 16 89.5 29.5t124.5 13.5q133 0 191.5 -60.5t58.5 -175.5v-325h-114l-16 81h-8q-19 -37 -60.5 -64t-107.5 -27z
" />
    <glyph glyph-name="uni0E0A" unicode="&#xe0a;" horiz-adv-x="599" 
d="M303 -13q-114 0 -172.5 50.5t-58.5 145.5v39q0 40 9.5 67.5t25.5 49.5t26.5 39.5t10.5 36.5q0 18 -9 25.5t-22 7.5q-19 0 -44 -12l-24 94q28 15 60.5 20.5t57.5 5.5q66 0 93.5 -31.5t27.5 -84.5q0 -31 -9 -54.5t-23 -48.5q-14 -23 -23 -43t-9 -58v-38q0 -50 21.5 -72
t61.5 -22q43 0 61.5 23t18.5 64v97q0 30 -13.5 47.5t-45.5 17.5h-5v79h6q31 0 46 17t19.5 43.5t4.5 55.5h149q0 -62 -16 -101.5t-56 -53.5v-4q35 -11 47.5 -38t12.5 -62v-102q0 -99 -58 -149.5t-171 -50.5z" />
    <glyph glyph-name="uni0E0B" unicode="&#xe0b;" horiz-adv-x="603" 
d="M304 -13q-116 0 -174 52t-58 147v33q0 47 16 80t47 68q10 11 21.5 25t12.5 27l-3 1q-20 -11 -43 -11q-37 0 -60.5 26.5t-23.5 76.5v36h107q0 -28 7 -40t22 -12q8 0 18 3t19 11l16 38h74v-67q0 -32 -2.5 -53t-10 -38.5t-22.5 -38.5q-12 -19 -22.5 -33.5t-16.5 -32.5
t-6 -47v-40q0 -50 21.5 -72t60.5 -22q44 0 64 23t20 64v97q0 30 -13 47.5t-42 17.5h-3v79h4q30 0 44 17t18 43.5t4 55.5h148q0 -62 -16 -100.5t-56 -54.5v-4q34 -10 47 -36.5t13 -67.5v-98q0 -98 -58.5 -149t-173.5 -51z" />
    <glyph glyph-name="uni0E0C" unicode="&#xe0c;" horiz-adv-x="927" 
d="M206 -10q-64 0 -102.5 31.5t-38.5 96.5v65q0 59 25.5 87t72.5 42l1 4l-109 39v26q0 50 28.5 91t83.5 65t135 24q111 0 175.5 -50.5t64.5 -150.5v-108q0 -60 26.5 -96t67.5 -36q31 0 51 21t20 69v338h150v-371q0 -94 -40 -140.5t-123 -46.5q-62 0 -102.5 27t-58.5 69h-8
l-16 -86h-115v345q0 53 -25.5 75.5t-68.5 22.5q-41 0 -65 -17t-26 -49l87 -42l-10 -65q-37 -1 -56 -17.5t-19 -57.5v-61q0 -41 40 -41q20 0 35 6l14 -89q-38 -20 -94 -20z" />
    <glyph glyph-name="uni0E0D" unicode="&#xe0d;" horiz-adv-x="937" 
d="M597 -196q-45 0 -90 8.5t-83 25.5v127q26 -17 66.5 -29t85.5 -12q64 0 100.5 29t36.5 93v29h-7q-19 -28 -54.5 -48t-91.5 -20q-75 0 -121 41.5t-46 132.5v168q0 53 -27 73.5t-67 20.5q-38 0 -63 -16.5t-27 -49.5l87 -42l-10 -65q-37 -1 -56 -17.5t-19 -57.5v-61
q0 -41 40 -41q20 0 35 6l14 -89q-38 -20 -94 -20q-64 0 -102.5 31.5t-38.5 96.5v65q0 59 25.5 87t72.5 42l1 4l-109 39v26q0 51 28.5 91.5t83.5 64.5t134 24q110 0 174.5 -50.5t64.5 -150.5v-134q0 -48 21 -69t52 -21q43 0 69 36t26 96v280h150v-481q0 -133 -66.5 -198
t-194.5 -65z" />
    <glyph glyph-name="uni0E0E" unicode="&#xe0e;" horiz-adv-x="637" 
d="M91 -212v17q0 82 43.5 120t120.5 38q49 0 91.5 -13.5t70.5 -35.5v427q0 50 -26.5 75t-75.5 25q-47 0 -70 -19.5t-24 -47.5l87 -39l-11 -65q-57 0 -57 -78v-78q0 -64 -35.5 -91t-90.5 -27q-28 0 -51 6t-41 15l14 83q12 -4 26 -4q32 0 32 35v67q0 49 20 76.5t61 37.5l1 4
l-109 39v26q0 49 28 90t83.5 65.5t138.5 24.5q115 0 182.5 -52.5t67.5 -158.5v-562h-130q-22 28 -63 43.5t-76 15.5t-50.5 -13.5t-15.5 -36.5v-9h-141z" />
    <glyph glyph-name="uni0E0F" unicode="&#xe0f;" horiz-adv-x="637" 
d="M61 -212v35q0 69 37 101t89 32q41 0 69.5 -16t47.5 -48l57 52l56 -40v437q0 50 -26.5 75t-75.5 25q-47 0 -70 -19.5t-24 -47.5l87 -39l-11 -65q-57 0 -57 -78v-78q0 -64 -35.5 -91t-90.5 -27q-28 0 -51 6t-41 15l14 83q12 -4 26 -4q32 0 32 35v67q0 49 20 76.5t61 37.5
l1 4l-109 39v26q0 49 28 90t83.5 65.5t138.5 24.5q115 0 182.5 -52.5t67.5 -158.5v-562h-126l-69 52l-51 -52h-35q-10 21 -26 37.5t-39 16.5q-24 0 -32 -16t-8 -33v-5h-120z" />
    <glyph glyph-name="uni0E10" unicode="&#xe10;" horiz-adv-x="572" 
d="M117 0v230h-57v92h192v-208h7q49 0 76.5 40t27.5 121q0 93 -38.5 130t-113.5 37q-53 0 -95 -14.5t-75 -34.5v125q33 17 83 30t117 13q44 0 80.5 -7.5t61.5 -25.5q33 22 34 56h131q0 -40 -21 -75t-68 -57q26 -26 41 -70.5t15 -110.5q0 -129 -62.5 -200t-208.5 -71h-127z
M41 -212v31q0 70 33.5 102t83.5 32q40 0 66 -17.5t46 -47.5l52 54l64 -47v73h124v-180h-129l-58 51l-43 -51h-27q-10 21 -25.5 37.5t-38.5 16.5t-30 -16t-7 -33v-5h-111z" />
    <glyph glyph-name="uni0E11" unicode="&#xe11;" horiz-adv-x="650" 
d="M84 0v210q0 48 7.5 82t39.5 71q22 25 29.5 34.5t8.5 21.5l-3 1q-20 -11 -43 -11q-37 0 -60.5 26.5t-23.5 76.5v36h104q0 -28 6.5 -40t22.5 -12q8 0 16.5 3t16.5 11l17 38h72v-75h4q25 41 63 63t88 22q65 0 98 -36t33 -97v-425h-150v363q0 71 -49 71q-25 0 -48 -18
t-54 -60q-17 -22 -26.5 -42t-14 -43.5t-4.5 -58.5v-212h-150z" />
    <glyph glyph-name="uni0E12" unicode="&#xe12;" horiz-adv-x="942" 
d="M274 -10q-86 0 -134.5 36t-68 101t-19.5 154q0 147 42.5 212t123.5 65q34 0 60 -13.5t42 -49.5h4q14 37 46 50t66 13q64 0 98 -37t34 -108v-161q0 -60 26 -96t68 -36q31 0 51 21t20 69v338h150v-371q0 -187 -161 -187q-66 0 -105.5 28t-57.5 68h-8l-16 -86h-115v385
q0 31 -9 42t-25 11t-25.5 -11t-12.5 -37h-58q-4 28 -14 38t-23 10q-25 0 -38 -33.5t-13 -121.5q0 -89 19 -134t78 -45q21 0 38 6l15 -107q-32 -13 -78 -13z" />
    <glyph glyph-name="uni0E13" unicode="&#xe13;" horiz-adv-x="937" 
d="M206 -10q-64 0 -102.5 31.5t-38.5 96.5v65q0 59 25.5 87t72.5 42l1 4l-109 39v26q0 51 28.5 91.5t83.5 64.5t134 24q110 0 174.5 -50.5t64.5 -150.5v-150q0 -48 21 -69t52 -21q43 0 69 36t26 96v296h150v-548h-116l-17 86h-8q-18 -42 -58.5 -69t-100.5 -27
q-82 0 -123.5 43.5t-41.5 137.5v178q0 53 -27 73.5t-67 20.5q-38 0 -63 -16.5t-27 -49.5l87 -42l-10 -65q-37 -1 -56 -17.5t-19 -57.5v-61q0 -41 40 -41q20 0 35 6l14 -89q-38 -20 -94 -20z" />
    <glyph glyph-name="uni0E14" unicode="&#xe14;" horiz-adv-x="634" 
d="M267 -10q-81 0 -129 35.5t-69 98t-21 143.5q0 87 19.5 144.5t55.5 90t85.5 46t108.5 13.5q89 0 143.5 -25t79 -71t24.5 -108v-357h-150v345q0 47 -22.5 71.5t-74.5 24.5q-35 0 -61.5 -14.5t-41 -51.5t-14.5 -106q0 -71 21 -115t73 -44q22 0 40 5l14 -112
q-16 -7 -38.5 -10t-42.5 -3z" />
    <glyph glyph-name="uni0E15" unicode="&#xe15;" horiz-adv-x="654" 
d="M279 -10q-89 0 -138.5 36.5t-69 102t-19.5 152.5q0 145 43 211t128 66q35 0 61.5 -13.5t42.5 -49.5h4q14 37 46 50t69 13q69 0 103.5 -37t34.5 -108v-413h-150v385q0 31 -10 42t-27 11q-19 0 -28.5 -11t-12.5 -37h-59q-4 28 -15 38t-26 10q-26 0 -39 -36t-13 -122
q0 -85 20 -130.5t78 -45.5q24 0 39 6l15 -107q-32 -13 -77 -13z" />
    <glyph glyph-name="uni0E16" unicode="&#xe16;" horiz-adv-x="625" 
d="M206 -10q-64 0 -102.5 31.5t-38.5 96.5v61q0 59 25.5 89t72.5 44l1 4l-109 39v26q0 49 29 90t85.5 65.5t137.5 24.5q114 0 181 -52.5t67 -158.5v-350h-150v341q0 50 -26.5 75t-75.5 25q-47 0 -70 -19.5t-24 -47.5l87 -40l-10 -64q-37 -1 -56 -15.5t-19 -55.5v-65
q0 -41 40 -41q20 0 35 6l14 -89q-38 -20 -94 -20z" />
    <glyph glyph-name="uni0E17" unicode="&#xe17;" horiz-adv-x="644" 
d="M77 0v548h110l20 -86h8q17 41 59 68.5t109 27.5q191 0 191 -205v-353h-150v323q0 56 -22.5 80.5t-65.5 24.5q-52 0 -80.5 -42t-28.5 -124v-262h-150z" />
    <glyph glyph-name="uni0E18" unicode="&#xe18;" horiz-adv-x="559" 
d="M286 -13q-62 0 -118.5 11t-100.5 27v216h128v-136q15 -5 37.5 -9t46.5 -4q41 0 69.5 15.5t28.5 58.5q0 32 -18.5 48t-53.5 25.5t-84 22.5q-55 14 -93 31t-58.5 44t-20.5 72q0 83 64 117.5t172 34.5q68 0 117.5 -10.5t75.5 -21.5v-115q-20 8 -52 16.5t-71 14.5t-78 6
q-33 0 -55.5 -7t-22.5 -26q0 -16 18 -24.5t49.5 -16t74.5 -20.5q57 -17 97 -39t61 -57.5t21 -91.5q0 -52 -21.5 -93t-72.5 -65t-140 -24z" />
    <glyph glyph-name="uni0E19" unicode="&#xe19;" horiz-adv-x="646" 
d="M257 -10q-91 0 -139 53t-48 156v349h150v-323q0 -55 22 -80t64 -25q53 0 82 40t29 126v262h150v-548h-114l-16 84h-9q-17 -40 -58.5 -67t-112.5 -27z" />
    <glyph glyph-name="uni0E1A" unicode="&#xe1a;" horiz-adv-x="634" 
d="M317 -13q-131 0 -189 60.5t-58 175.5v325h150v-333q0 -53 23.5 -80.5t73.5 -27.5t73.5 27.5t23.5 80.5v333h150v-325q0 -115 -58.5 -175.5t-188.5 -60.5z" />
    <glyph glyph-name="uni0E1B" unicode="&#xe1b;" horiz-adv-x="635" 
d="M317 -13q-131 0 -189 60.5t-58 175.5v325h150v-333q0 -53 23.5 -80.5t73.5 -27.5t73.5 27.5t23.5 80.5v530h150v-522q0 -115 -58.5 -175.5t-188.5 -60.5z" />
    <glyph glyph-name="uni0E1C" unicode="&#xe1c;" horiz-adv-x="682" 
d="M75 0v426q0 51 17.5 79.5t48.5 40.5t71 12q28 0 50 -5.5t36 -12.5l-20 -98q-8 2 -16 3t-13 1q-19 0 -26.5 -10t-7.5 -29v-93q0 -25 -2 -59.5t-7 -86.5h5q20 47 35.5 75.5t27.5 50.5l37 67h56l37 -67q20 -37 33 -62.5t30 -63.5h5q-5 52 -7 86.5t-2 59.5v234h140v-548h-143
l-119 218h-4l-119 -218h-143z" />
    <glyph glyph-name="uni0E1D" unicode="&#xe1d;" horiz-adv-x="683" 
d="M75 0v426q0 51 17.5 79.5t48.5 40.5t71 12q28 0 50 -5.5t36 -12.5l-20 -98q-8 2 -16 3t-13 1q-19 0 -26.5 -10t-7.5 -29v-93q0 -25 -2 -59.5t-7 -86.5h5q20 47 35.5 75.5t27.5 50.5l37 67h56l37 -67q20 -37 33 -62.5t30 -63.5h5q-5 52 -7 86.5t-2 59.5v431h140v-745h-143
l-119 218h-4l-119 -218h-143z" />
    <glyph glyph-name="uni0E1E" unicode="&#xe1e;" horiz-adv-x="727" 
d="M126 0l-95 548h146l27 -193q3 -24 7.5 -65.5t8.5 -96.5h3q13 55 23 96.5t18 68.5l54 190h91l54 -190q7 -27 17.5 -68.5t23.5 -96.5h3q5 55 8.5 96.5t7.5 65.5l28 193h145l-94 -548h-147l-63 223q-10 39 -16 71t-10 67h-4q-6 -35 -11.5 -65.5t-17.5 -72.5l-64 -223h-143z
" />
    <glyph glyph-name="uni0E1F" unicode="&#xe1f;" horiz-adv-x="718" 
d="M124 0l-93 548h146l25 -193q2 -18 7 -64t9 -98h4q10 47 20.5 88.5t20.5 76.5l54 190h91l53 -190q10 -35 20 -76.5t21 -88.5h3q5 54 9 96t6 66l46 390h144l-110 -745h-147l-63 223q-10 38 -15.5 70.5t-10.5 67.5h-4q-5 -35 -11 -65.5t-18 -72.5l-64 -223h-143z" />
    <glyph glyph-name="uni0E20" unicode="&#xe20;" horiz-adv-x="637" 
d="M114 -10q-28 0 -51 5.5t-41 15.5l14 83q12 -4 26 -4q32 0 32 35v73q0 49 20 76.5t61 37.5l1 4l-109 39v26q0 49 28 90t83.5 65.5t138.5 24.5q115 0 182.5 -52.5t67.5 -158.5v-350h-150v341q0 50 -26.5 75t-75.5 25q-47 0 -70 -19.5t-24 -47.5l87 -39l-11 -65
q-57 0 -57 -78v-84q0 -64 -35.5 -91t-90.5 -27z" />
    <glyph glyph-name="uni0E21" unicode="&#xe21;" horiz-adv-x="646" 
d="M393 -10q-71 0 -114.5 27t-61.5 69h-8l-16 -86h-114v548h150v-262q0 -86 29 -126t82 -40q42 0 64 25t22 80v323h150v-356q0 -98 -46.5 -150t-136.5 -52z" />
    <glyph glyph-name="uni0E22" unicode="&#xe22;" horiz-adv-x="622" 
d="M302 -13q-90 0 -144 21.5t-78.5 60.5t-24.5 90q0 43 13.5 70.5t34.5 42t44 19.5v6q-35 11 -63.5 38.5t-28.5 81.5q0 37 17.5 69t56.5 51.5t103 19.5q31 0 59.5 -4.5t45.5 -12.5l-23 -101q-8 2 -22 4.5t-27 2.5q-31 0 -46 -14.5t-15 -37.5q0 -37 28 -48.5t61 -11.5h21v-93
h-21q-43 0 -64.5 -15t-21.5 -49q0 -19 8.5 -36t29.5 -28.5t60 -11.5q55 0 76 23.5t21 58.5v365h150v-360q0 -103 -60.5 -152t-189.5 -49z" />
    <glyph glyph-name="uni0E23" unicode="&#xe23;" horiz-adv-x="518" 
d="M258 -13q-59 0 -118.5 13t-105.5 37l42 119q30 -16 77 -33.5t99 -17.5q81 0 81 47q0 26 -30.5 40.5t-84.5 33.5q-53 18 -91 40t-58.5 54t-20.5 81q0 82 61.5 121t164.5 39q56 0 101 -9.5t70 -22.5v-118q-26 12 -73.5 23.5t-90.5 11.5q-83 0 -83 -42q0 -24 32.5 -37.5
t91.5 -33.5q78 -27 119.5 -65t41.5 -108q0 -45 -20.5 -84.5t-69.5 -64t-135 -24.5z" />
    <glyph glyph-name="uni0E24" unicode="&#xe24;" horiz-adv-x="625" 
d="M206 -10q-64 0 -102.5 31.5t-38.5 96.5v61q0 59 25.5 89t72.5 44l1 4l-109 39v26q0 49 29 90t85.5 65.5t137.5 24.5q114 0 181 -52.5t67 -158.5v-562h-150v553q0 50 -26.5 75t-75.5 25q-47 0 -70 -19.5t-24 -47.5l87 -40l-10 -64q-37 -1 -56 -15.5t-19 -55.5v-65
q0 -41 40 -41q20 0 35 6l14 -89q-38 -20 -94 -20z" />
    <glyph glyph-name="uni0E25" unicode="&#xe25;" horiz-adv-x="599" 
d="M218 -10q-86 0 -132.5 41t-46.5 115q0 80 57.5 128t181.5 58l104 8v16q0 48 -26 69t-80 21q-52 0 -101.5 -15.5t-85.5 -36.5v124q29 14 82 28.5t123 14.5q68 0 121 -19.5t83.5 -65.5t30.5 -126v-350h-147v232l-87 -9q-60 -6 -83.5 -24t-23.5 -48t19 -45t51 -15
q12 0 24 2.5t22 5.5l13 -94q-19 -7 -45 -11t-54 -4z" />
    <glyph glyph-name="uni0E26" unicode="&#xe26;" horiz-adv-x="637" 
d="M114 -10q-28 0 -51 5.5t-41 15.5l14 83q12 -4 26 -4q32 0 32 35v73q0 49 20 76.5t61 37.5l1 4l-109 39v26q0 49 28 90t83.5 65.5t138.5 24.5q115 0 182.5 -52.5t67.5 -158.5v-562h-150v553q0 50 -26.5 75t-75.5 25q-47 0 -70 -19.5t-24 -47.5l87 -39l-11 -65
q-57 0 -57 -78v-84q0 -64 -35.5 -91t-90.5 -27z" />
    <glyph glyph-name="uni0E27" unicode="&#xe27;" horiz-adv-x="514" 
d="M216 -13q-51 0 -96 11.5t-84 32.5l40 109q22 -13 53 -23t61 -10q56 0 89 42.5t33 127.5q0 79 -33 121.5t-103 42.5q-33 0 -68 -9.5t-58 -23.5v123q31 14 70 22t83 8q138 0 200 -75.5t62 -208.5q0 -143 -65 -216.5t-184 -73.5z" />
    <glyph glyph-name="uni0E28" unicode="&#xe28;" horiz-adv-x="659" 
d="M70 0v325q0 115 61 175.5t194 60.5q40 0 74 -7.5t60 -25.5q32 22 33 56h131q0 -38 -19 -72t-62 -56q19 -24 27 -57.5t8 -74.5v-324h-149v327q0 53 -24.5 83.5t-79.5 30.5q-56 0 -80.5 -30.5t-24.5 -83.5v-87l3 -1q20 39 46 51.5t72 12.5h24v-112h-24q-50 0 -76 -17
t-35.5 -44.5t-9.5 -61.5v-68h-149z" />
    <glyph glyph-name="uni0E29" unicode="&#xe29;" horiz-adv-x="675" 
d="M326 -13q-137 0 -196.5 61.5t-59.5 176.5v323h149v-331q0 -55 25.5 -83t83.5 -28q56 0 80 26t24 85v1h-42q-48 0 -75 15.5t-38 40t-11 49.5q0 18 5 38t15 32l89 -18q-6 -12 -6 -28q0 -13 8 -22.5t22 -9.5h33v233h149v-233h58v-97h-58q-2 -112 -61.5 -171.5t-193.5 -59.5z
" />
    <glyph glyph-name="uni0E2A" unicode="&#xe2a;" horiz-adv-x="602" 
d="M218 -10q-86 0 -132.5 41t-46.5 115q0 80 57.5 128t181.5 58l104 8v16q0 48 -26 69t-80 21q-52 0 -101.5 -15.5t-85.5 -36.5v124q29 14 82 28.5t122 14.5q36 0 68 -5.5t55 -20.5q24 20 25 49h131q0 -36 -17 -68t-54 -54q15 -20 21.5 -48t6.5 -64v-350h-147v232l-87 -9
q-60 -6 -83.5 -24t-23.5 -48t19 -45t51 -15q12 0 24 2.5t22 5.5l13 -94q-19 -7 -45 -11t-54 -4z" />
    <glyph glyph-name="uni0E2B" unicode="&#xe2b;" horiz-adv-x="622" 
d="M79 0v548h148v-205h4l170 205h165v-5l-145 -161q71 -11 107 -60t36 -118v-204h-150v181q0 45 -22 68.5t-64 29.5l-101 -112v-167h-148z" />
    <glyph glyph-name="uni0E2C" unicode="&#xe2c;" horiz-adv-x="709" 
d="M111 0l-80 548h148l25 -224q3 -25 6.5 -67.5t3.5 -94.5h3q13 46 24.5 80t24.5 68l46 127h85l46 -127q12 -34 23.5 -68t24.5 -80h4q1 45 5 87.5t8 73.5l13 85q9 58 -12.5 82.5t-76.5 24.5h-62v98h80q69 0 94 27t25 69v5h143v-5q0 -56 -25 -97.5t-84 -51.5v-4
q43 -16 56.5 -56t7.5 -78l-66 -422h-156l-51 159q-11 35 -20 68.5t-18 83.5h-4q-9 -52 -18.5 -86t-20.5 -67l-53 -158h-149z" />
    <glyph glyph-name="uni0E2D" unicode="&#xe2d;" horiz-adv-x="593" 
d="M288 -13q-122 0 -181 59.5t-59 176.5q0 19 1.5 48t4.5 51h240v-95h-99v-14q0 -60 22.5 -87.5t69.5 -27.5q50 0 78 35t28 130q0 89 -31.5 133.5t-113.5 44.5q-45 0 -93 -14t-79 -31v125q32 17 88 28.5t112 11.5q97 0 156.5 -35.5t87 -100.5t27.5 -154q0 -137 -61 -210.5
t-198 -73.5z" />
    <glyph glyph-name="uni0E2E" unicode="&#xe2e;" horiz-adv-x="596" 
d="M287 -13q-239 0 -239 236q0 19 1.5 48t4.5 51h240v-95h-99v-14q0 -60 22.5 -87.5t69.5 -27.5q49 0 77.5 35t28.5 127q0 94 -33.5 137.5t-110.5 43.5q-47 0 -94 -13.5t-80 -31.5v125q21 11 54 20.5t71 14.5t73 5q39 0 72.5 -7.5t60.5 -25.5q32 22 33 56h131
q0 -38 -19.5 -72t-62.5 -56q30 -32 44.5 -80t14.5 -112q0 -129 -61 -203t-199 -74z" />
    <glyph glyph-name="uni0E2F" unicode="&#xe2f;" horiz-adv-x="543" 
d="M317 0v248q-42 -37 -118 -37q-50 0 -92.5 19.5t-68 59.5t-25.5 101q0 78 44 122.5t122 44.5q14 0 33 -2t40 -10l-11 -95q-10 3 -17 4t-12 1q-24 0 -41 -15t-17 -47t20.5 -51t59.5 -19q83 0 83 92v132h150v-548h-150z" />
    <glyph glyph-name="uni0E30" unicode="&#xe30;" horiz-adv-x="358" 
d="M164 323q-69 0 -96.5 30.5t-27.5 70.5q0 35 20 72l109 -14q-5 -15 -5 -32q0 -14 8 -21t28 -7h113v-99h-149zM164 43q-69 0 -96.5 30.5t-27.5 70.5q0 35 20 72l109 -14q-5 -15 -5 -32q0 -14 8 -21t28 -7h113v-99h-149z" />
    <glyph glyph-name="uni0E31" unicode="&#xe31;" 
d="M-225 624q-47 0 -74 14t-38.5 35.5t-11.5 45.5q0 38 20 73l109 -14q-5 -15 -5 -28q0 -14 8.5 -21.5t28.5 -7.5h215v-97h-252z" />
    <glyph glyph-name="uni0E32" unicode="&#xe32;" horiz-adv-x="435" 
d="M215 0v362q0 42 -19.5 61t-63.5 19q-33 0 -60.5 -9t-51.5 -22v120q22 10 62 20t94 10q55 0 97.5 -16t67 -53.5t24.5 -102.5v-389h-150z" />
    <glyph glyph-name="uni0E33" unicode="&#xe33;" horiz-adv-x="435" 
d="M215 0v362q0 42 -19.5 61t-63.5 19q-33 0 -60.5 -9t-51.5 -22v120q22 10 62 20t94 10q55 0 97.5 -16t67 -53.5t24.5 -102.5v-389h-150zM-181 602q-57 0 -91 26t-34 73t34 73t91 26t91.5 -26t34.5 -73t-34.5 -73t-91.5 -26zM-181 660q22 0 34 11t12 30t-12 30t-34 11
q-21 0 -33 -11t-12 -30t12 -30t33 -11z" />
    <glyph glyph-name="uni0E34" unicode="&#xe34;" 
d="M-537 624v63l101 42h357v-105h-458z" />
    <glyph glyph-name="uni0E35" unicode="&#xe35;" 
d="M-537 624v63l101 42h229v69h128v-174h-458z" />
    <glyph glyph-name="uni0E36" unicode="&#xe36;" 
d="M-537 624v63l101 42h176q2 35 28.5 58.5t71.5 23.5q50 0 77 -26.5t27 -67.5q0 -40 -25 -66.5t-77 -26.5h-379zM-160 677q21 0 31.5 11.5t10.5 27.5q0 17 -11.5 28.5t-31.5 11.5t-31 -11t-11 -28t10.5 -28.5t32.5 -11.5z" />
    <glyph glyph-name="uni0E37" unicode="&#xe37;" 
d="M-536 624v63l101 42h109v69h95v-69h59v69h94v-174h-458z" />
    <glyph glyph-name="uni0E38" unicode="&#xe38;" 
d="M-207 -261v89q0 25 -22 25q-5 0 -10 -1.5t-10 -2.5l-7 72q14 5 38 10t50 5q49 0 69 -19.5t20 -53.5v-124h-128z" />
    <glyph glyph-name="uni0E39" unicode="&#xe39;" 
d="M-233 -265q-80 0 -117 24t-37 63v17q0 17 -9 20.5t-24 -0.5l-7 67q13 6 35.5 8t36.5 2q43 0 63 -16t20 -45v-23q0 -17 7.5 -26.5t27.5 -9.5q21 0 29 9.5t8 26.5v81h122v-97q0 -50 -37 -75.5t-118 -25.5z" />
    <glyph glyph-name="uni0E3A" unicode="&#xe3a;" 
d="M-151 -208q-38 0 -59 20t-21 57t21 57t59 20q37 0 58 -20t21 -57t-21 -57t-58 -20z" />
    <glyph glyph-name="uni0E3F" unicode="&#xe3f;" horiz-adv-x="581" 
d="M67 36v642h171v82h71v-83q105 -5 153.5 -44t48.5 -114q0 -56 -33 -94.5t-89 -47.5v-5q59 -10 98 -45t39 -107q0 -88 -59.5 -136t-157.5 -48v-95h-71v95h-171zM176 422h62v147h-62v-147zM390 499q0 62 -81 69v-145q45 3 63 23.5t18 52.5zM176 147h62v169h-62v-169z
M404 234q0 32 -21 55.5t-74 26.5v-169q52 2 73.5 26t21.5 61z" />
    <glyph glyph-name="uni0E40" unicode="&#xe40;" horiz-adv-x="341" 
d="M224 -10q-68 0 -103.5 31.5t-35.5 96.5v430h150v-412q0 -37 35 -37q15 0 34 7l14 -96q-38 -20 -94 -20z" />
    <glyph glyph-name="uni0E41" unicode="&#xe41;" horiz-adv-x="642" 
d="M224 -10q-68 0 -103.5 31.5t-35.5 96.5v430h150v-412q0 -37 35 -37q15 0 34 7l14 -96q-38 -20 -94 -20zM525 -10q-68 0 -103.5 31.5t-35.5 96.5v430h150v-412q0 -37 35 -37q15 0 34 7l14 -96q-38 -20 -94 -20z" />
    <glyph glyph-name="uni0E42" unicode="&#xe42;" horiz-adv-x="349" 
d="M243 -10q-67 0 -103 31.5t-36 96.5v493q0 60 -22 86t-66 26v60l101 48h255v-108h-168l-1 -4q51 -31 51 -125v-458q0 -37 35 -37q15 0 34 7l14 -96q-38 -20 -94 -20z" />
    <glyph glyph-name="uni0E43" unicode="&#xe43;" horiz-adv-x="338" 
d="M224 -10q-68 0 -103.5 31.5t-35.5 96.5v370q0 26 3.5 43t13.5 32.5t29 37.5q19 23 32.5 40t13.5 39q0 23 -16.5 36.5t-51.5 13.5q-27 0 -48 -7t-38 -18v111q13 8 50 18.5t89 10.5q79 0 125 -33t46 -99q0 -41 -15.5 -70.5t-32.5 -52.5q-17 -22 -28 -36.5t-16.5 -30
t-5.5 -39.5v-348q0 -37 34 -37q16 0 35 7l14 -96q-38 -20 -94 -20z" />
    <glyph glyph-name="uni0E44" unicode="&#xe44;" horiz-adv-x="347" 
d="M244 -10q-68 0 -103.5 31.5t-35.5 96.5v476q0 56 15.5 83t35.5 42l-1 4h-155l28 108h318v-108q-37 0 -64 -24t-27 -88v-475q0 -37 35 -37q15 0 34 7l14 -96q-38 -20 -94 -20z" />
    <glyph glyph-name="uni0E45" unicode="&#xe45;" horiz-adv-x="435" 
d="M215 -212v574q0 42 -19.5 61t-63.5 19q-33 0 -60.5 -9t-51.5 -22v120q22 10 62 20t94 10q55 0 97.5 -16t67 -53.5t24.5 -102.5v-601h-150z" />
    <glyph glyph-name="uni0E46" unicode="&#xe46;" horiz-adv-x="637" 
d="M417 -212v621q0 45 -36 45q-37 0 -37 -45v-33h-70v33q0 45 -37 45q-20 0 -29.5 -17t-9.5 -57q0 -44 11.5 -60.5t35.5 -16.5q16 0 31 6l26 -94q-15 -11 -37.5 -18.5t-52.5 -7.5q-71 0 -111 47.5t-40 141.5q0 99 41 141t107 42q38 0 66.5 -12.5t42.5 -39.5h3q13 27 42 39.5
t69 12.5q37 0 67.5 -12t49 -44t18.5 -91v-626h-150z" />
    <glyph glyph-name="uni0E47" unicode="&#xe47;" 
d="M-201 615q-61 0 -86 45l-50 -42q-63 0 -101 30.5t-38 88.5q0 41 17.5 67.5t45.5 39.5t60 13h252v-73h-226q-19 0 -32 -12t-13 -37q0 -19 8 -30.5t25 -11.5l46 43h20q3 -20 13 -33t28 -13q15 0 23 9.5t8 25.5v15h101v-20q0 -54 -27.5 -79.5t-73.5 -25.5z" />
    <glyph glyph-name="uni0E48" unicode="&#xe48;" 
d="M-223 624v227h138v-227h-138z" />
    <glyph glyph-name="uni0E49" unicode="&#xe49;" 
d="M-381 623v50q13 4 30.5 11t30.5 18.5t13 30.5q0 14 -8 22t-20 8q-8 0 -17 -3t-16 -6l-19 67q20 17 49.5 22.5t49.5 5.5q45 0 70.5 -21.5t25.5 -61.5q0 -26 -15 -46h153v-97h-327z" />
    <glyph glyph-name="uni0E4A" unicode="&#xe4a;" 
d="M-339 619q-53 0 -83 30t-30 82q0 53 30.5 83.5t82.5 33.5l62 -38l56 38q67 -3 93 -29.5t26 -62.5q0 -23 -10 -41h78v-91h-204v64q12 4 21 13.5t9 26.5q0 19 -9.5 27.5t-18.5 9.5l-38 -22h-4l-37 22q-9 -1 -17.5 -9.5t-8.5 -26.5q0 -17 9 -27.5t24 -10.5q4 0 9 0.5t11 2.5
l7 -64q-7 -5 -24 -8t-34 -3z" />
    <glyph glyph-name="uni0E4B" unicode="&#xe4b;" 
d="M-255 624v70h-70v87h70v70h120v-70h69v-87h-69v-70h-120z" />
    <glyph glyph-name="uni0E4C" unicode="&#xe4c;" 
d="M-265 602q-8 14 -13.5 36t-5.5 44q0 42 25 71.5t95 29.5h145v-101h-96q-40 0 -40 -30q0 -14 8 -30z" />
    <glyph glyph-name="uni0E4D" unicode="&#xe4d;" 
d="M-181 602q-57 0 -91 26t-34 73t34 73t91 26t91.5 -26t34.5 -73t-34.5 -73t-91.5 -26zM-181 660q22 0 34 11t12 30t-12 30t-34 11q-21 0 -33 -11t-12 -30t12 -30t33 -11z" />
    <glyph glyph-name="uni0E4E" unicode="&#xe4e;" 
d="M-274 603q-15 22 -15 54q0 39 25 57.5t61 18.5q19 0 33 -5q-2 8 -2 17q0 36 27 52.5t62 16.5q13 0 31 -2.5t31 -8.5v-67q-7 3 -17 4.5t-18 1.5q-18 0 -29.5 -9t-11.5 -25q0 -13 7 -24l-37 -26q-7 7 -16 8.5t-15 1.5q-16 0 -23.5 -8.5t-7.5 -19.5q0 -10 6 -22z" />
    <glyph glyph-name="uni0E4F" unicode="&#xe4f;" horiz-adv-x="644" 
d="M322 -13q-136 0 -199 65t-63 176q0 116 63 178t199 62t199.5 -62t63.5 -178q0 -111 -63.5 -176t-199.5 -65zM321 72q79 0 117 40.5t38 115.5q0 80 -38 117.5t-117 37.5t-116.5 -37.5t-37.5 -117.5q0 -75 37.5 -115.5t116.5 -40.5zM321 125q-52 0 -75 28.5t-23 74.5
q0 50 23 76t75 26t75.5 -26t23.5 -76q0 -46 -23.5 -74.5t-75.5 -28.5z" />
    <glyph glyph-name="uni0E50" unicode="&#xe50;" horiz-adv-x="567" 
d="M283 -13q-115 0 -175.5 65t-60.5 176q0 116 60.5 178t175.5 62t176 -62t61 -178q0 -111 -61 -176t-176 -65zM283 100q92 0 92 128q0 68 -23 97.5t-69 29.5q-47 0 -69.5 -29.5t-22.5 -97.5q0 -128 92 -128z" />
    <glyph glyph-name="uni0E51" unicode="&#xe51;" horiz-adv-x="533" 
d="M252 -13q-23 0 -45 3t-41 10v97q16 -6 48 -6q64 0 96 35.5t32 112.5q0 68 -23.5 94t-67.5 26q-76 0 -76 -63q0 -26 11.5 -39.5t31.5 -13.5q11 0 23 5l21 -91q-13 -12 -37 -19t-49 -7q-62 0 -98 41.5t-36 117.5q0 86 50.5 130.5t157.5 44.5q127 0 181.5 -61.5t54.5 -168.5
q0 -72 -23.5 -128t-75 -88t-135.5 -32z" />
    <glyph glyph-name="uni0E52" unicode="&#xe52;" horiz-adv-x="644" 
d="M328 -13q-146 0 -210.5 60.5t-64.5 167.5v369h141v-357q0 -59 31 -93.5t105 -34.5t101 34.5t27 96.5v107q0 36 -21 36q-13 0 -18 -10.5t-6 -29.5h-38q-1 19 -6 29.5t-18 10.5q-22 0 -22 -50q0 -24 6 -37.5t23 -13.5q4 0 11 1.5t14 5.5l22 -74q-13 -8 -28 -13t-34 -5
q-54 0 -86 36.5t-32 105.5q0 61 24.5 97.5t76.5 36.5q26 0 46 -10.5t29 -32.5h3q19 43 81 43q43 0 74 -25.5t31 -87.5v-133q0 -71 -25 -123t-82 -79.5t-155 -27.5z" />
    <glyph glyph-name="uni0E53" unicode="&#xe53;" horiz-adv-x="566" 
d="M258 304q-2 28 -10.5 36.5t-17.5 8.5q-39 0 -39 -113q0 -70 14 -105t48 -35q5 0 12 1t13 4l17 -98q-15 -5 -38.5 -9t-48.5 -4q-59 0 -94.5 30.5t-51 85.5t-15.5 128q0 121 36 176t107 55q28 0 52 -11t42 -43h3q11 31 41 42.5t61 11.5q121 0 121 -136v-329h-142v306
q0 27 -9 35t-19 8q-13 0 -20.5 -9t-9.5 -36h-52z" />
    <glyph glyph-name="uni0E54" unicode="&#xe54;" horiz-adv-x="537" 
d="M256 0q-106 0 -157.5 55t-51.5 168q0 65 18.5 119t60 86t111.5 32h37q44 0 59 15.5t15 52.5v56h131v-88q0 -68 -35.5 -104.5t-109.5 -36.5h-32q-62 0 -86.5 -36t-24.5 -100q0 -60 20 -87t63 -27h27q-19 28 -19 77q0 111 118 111q46 0 73 -15l-19 -78q-4 2 -10 2.5
t-10 0.5q-35 0 -35 -45q0 -53 56 -53h33v-105h-232z" />
    <glyph glyph-name="uni0E55" unicode="&#xe55;" horiz-adv-x="554" 
d="M263 0q-113 0 -164.5 55t-51.5 170q0 86 29.5 143.5t91.5 75.5q-15 11 -24.5 27.5t-9.5 39.5q0 39 28 63t78 24q51 0 78 -25t27 -63q0 -18 -5.5 -32t-14.5 -23q39 4 49.5 24t10.5 68v37h113v-88q0 -68 -38.5 -104.5t-112.5 -36.5h-38q-67 0 -92.5 -36t-25.5 -100
q0 -60 21 -87t68 -27h27q-19 30 -19 77q0 111 118 111q22 0 41 -4t33 -11l-20 -78q-4 2 -10 2.5t-10 0.5q-35 0 -35 -45q0 -53 56 -53h33v-105h-231zM241 468q17 0 26.5 10.5t9.5 25.5q0 14 -9.5 24.5t-26.5 10.5t-26 -10.5t-9 -24.5q0 -15 9 -25.5t26 -10.5z" />
    <glyph glyph-name="uni0E56" unicode="&#xe56;" horiz-adv-x="526" 
d="M258 -13q-63 0 -112.5 21.5t-80.5 72.5l96 72q19 -27 39.5 -42t49.5 -15q45 0 65 34t20 98q0 68 -20.5 98t-58.5 30q-28 0 -47.5 -15.5t-20.5 -45.5h-105l-59 289h123l31 -159q35 40 110 40q99 0 145 -64t46 -171q0 -115 -53 -179t-168 -64z" />
    <glyph glyph-name="uni0E57" unicode="&#xe57;" horiz-adv-x="750" 
d="M254 304q-2 27 -9 36t-17 9q-21 0 -29 -27.5t-8 -82.5q0 -73 13.5 -108t47.5 -35q6 0 13 1t13 4l17 -98q-15 -5 -38 -9t-45 -4q-92 0 -128.5 66t-36.5 182q0 124 36 175.5t105 51.5q28 0 50.5 -11t38.5 -43h3q14 33 42.5 43.5t56.5 10.5q51 0 79 -27t28 -83v-253
q34 0 52.5 20t18.5 81v381h138v-369q0 -65 -20 -107t-52.5 -65.5t-71.5 -33t-76 -9.5h-121v308q0 24 -7 32.5t-18 8.5q-14 0 -20.5 -9.5t-8.5 -35.5h-46z" />
    <glyph glyph-name="uni0E58" unicode="&#xe58;" horiz-adv-x="567" 
d="M382 -13q-43 0 -71 17t-38 55l-54 -68q-82 0 -127 56t-45 172q0 67 18 121.5t63.5 87t125.5 32.5h34q38 0 51 14t13 51v59h139v-88q0 -68 -35.5 -104.5t-108.5 -36.5h-65q-52 0 -76 -34.5t-24 -92.5q0 -57 17 -80.5t35 -28.5l37 50h40q0 -34 11 -48.5t33 -14.5
q47 0 47 53q0 24 -10 39t-18 23l81 68q37 -25 52.5 -61t15.5 -83q0 -76 -37.5 -117t-103.5 -41z" />
    <glyph glyph-name="uni0E59" unicode="&#xe59;" horiz-adv-x="549" 
d="M211 -10q-91 0 -127.5 66t-36.5 182q0 123 38 175t119 52q69 0 98 -41q7 18 22 29.5t38 11.5h5q19 0 26.5 10t7.5 31v78h126v-99q0 -53 -22 -82t-64 -29h-14q-29 0 -38.5 -16.5t3.5 -53.5l108 -304h-131l-106 326q-5 17 -11.5 25t-18.5 8t-21.5 -9.5t-15 -36t-5.5 -76.5
q0 -70 13.5 -105.5t48.5 -35.5q5 0 12 1t13 4l17 -98q-15 -6 -38.5 -9.5t-45.5 -3.5z" />
    <glyph glyph-name="uni0E5A" unicode="&#xe5a;" horiz-adv-x="827" 
d="M317 0v249q-41 -38 -117 -38q-51 0 -93.5 19.5t-68 59.5t-25.5 101q0 78 44 122.5t122 44.5q14 0 33 -2t40 -10l-11 -95q-10 3 -16.5 4t-11.5 1q-25 0 -42 -15t-17 -47t20 -51t61 -19q82 0 82 89v135h150v-217q19 -8 42 -8q41 0 66.5 26.5t25.5 75.5v123h150v-548h-150
v258q-18 -21 -43 -31.5t-53 -10.5q-19 0 -38 5v-221h-150z" />
    <glyph glyph-name="uni0E5B" unicode="&#xe5b;" horiz-adv-x="906" 
d="M248 70q-99 0 -148.5 52t-49.5 144q0 74 37 121t122 47q72 0 107.5 -32.5t35.5 -89.5q0 -23 -5.5 -43.5t-15.5 -39.5l-88 29q3 7 5.5 16.5t2.5 19.5q0 19 -9.5 29t-25.5 10q-22 0 -30.5 -20t-8.5 -44q0 -51 24.5 -72.5t66.5 -21.5q70 0 98 49.5t24 133.5h91l42 -121
l27 111h74l34 -98l25 82h66l5 -18q6 -22 12.5 -40t19 -28.5t38.5 -10.5q10 0 17 2t12 4v-95q-9 -5 -19.5 -8.5t-26.5 -3.5q-70 0 -104 85l-17 -87h-61l-35 114l-26 -124h-77l-31 107q-9 -36 -31 -72.5t-64.5 -61.5t-112.5 -25z" />
    <glyph glyph-name="uni200B" unicode="&#x200b;" 
 />
    <glyph glyph-name="uni200C" unicode="&#x200c;" 
d="M-21 -133v761h42v-761h-42z" />
    <glyph glyph-name="uni200D" unicode="&#x200d;" 
d="M-21 -133v668l-62 -62l-26 27l82 82l-82 81l26 27l83 -83l83 83l26 -27l-82 -81l82 -82l-26 -27l-62 62v-668h-42z" />
    <glyph glyph-name="uni2010" unicode="&#x2010;" horiz-adv-x="322" 
d="M30 207v122h262v-122h-262z" />
    <glyph glyph-name="uni25CC" unicode="&#x25cc;" horiz-adv-x="594" 
d="M297 488q-11 0 -18.5 8t-7.5 18t7.5 18t18.5 8t18.5 -8t7.5 -18t-7.5 -18t-18.5 -8zM213 470q-11 0 -18.5 8t-7.5 18t7.5 18t18.5 8t18.5 -8t7.5 -18t-7.5 -18t-18.5 -8zM381 470q-11 0 -18.5 8t-7.5 18t7.5 18t18.5 8t18.5 -8t7.5 -18t-7.5 -18t-18.5 -8zM455 423
q-11 0 -18.5 7.5t-7.5 18.5t7.5 18.5t18.5 7.5t18.5 -7.5t7.5 -18.5t-7.5 -18.5t-18.5 -7.5zM139 423q-11 0 -18.5 7.5t-7.5 18.5t7.5 18.5t18.5 7.5t18.5 -7.5t7.5 -18.5t-7.5 -18.5t-18.5 -7.5zM92 349q-10 0 -18 7.5t-8 18.5t8 18.5t18 7.5t18 -7.5t8 -18.5t-8 -18.5
t-18 -7.5zM502 349q-10 0 -18 7.5t-8 18.5t8 18.5t18 7.5t18 -7.5t8 -18.5t-8 -18.5t-18 -7.5zM74 265q-10 0 -18 7.5t-8 18.5t8 18.5t18 7.5t18 -7.5t8 -18.5t-8 -18.5t-18 -7.5zM520 265q-10 0 -18 7.5t-8 18.5t8 18.5t18 7.5t18 -7.5t8 -18.5t-8 -18.5t-18 -7.5zM92 181
q-10 0 -18 7.5t-8 18.5t8 18.5t18 7.5t18 -7.5t8 -18.5t-8 -18.5t-18 -7.5zM502 181q-10 0 -18 7.5t-8 18.5t8 18.5t18 7.5t18 -7.5t8 -18.5t-8 -18.5t-18 -7.5zM139 107q-11 0 -18.5 7.5t-7.5 18.5t7.5 18.5t18.5 7.5t18.5 -7.5t7.5 -18.5t-7.5 -18.5t-18.5 -7.5zM455 107
q-11 0 -18.5 7.5t-7.5 18.5t7.5 18.5t18.5 7.5t18.5 -7.5t7.5 -18.5t-7.5 -18.5t-18.5 -7.5zM213 60q-11 0 -18.5 8t-7.5 18t7.5 18t18.5 8t18.5 -8t7.5 -18t-7.5 -18t-18.5 -8zM381 60q-11 0 -18.5 8t-7.5 18t7.5 18t18.5 8t18.5 -8t7.5 -18t-7.5 -18t-18.5 -8zM297 42
q-11 0 -18.5 8t-7.5 18t7.5 18t18.5 8t18.5 -8t7.5 -18t-7.5 -18t-18.5 -8z" />
    <glyph glyph-name="saraUu-thai.small" horiz-adv-x="600" 
d="M94 0v714h411v-714h-411zM145 51h309v612h-309v-612z" />
    <glyph glyph-name="uni0E24.aalt" horiz-adv-x="625" 
d="M206 -10q-64 0 -102.5 31.5t-38.5 96.5v61q0 59 25.5 89t72.5 44l1 4l-109 39v26q0 49 29 90t85.5 65.5t137.5 24.5q114 0 181 -52.5t67 -158.5v-524h-150v515q0 50 -26.5 75t-75.5 25q-47 0 -70 -19.5t-24 -47.5l87 -40l-10 -64q-37 -1 -56 -15.5t-19 -55.5v-65
q0 -41 40 -41q20 0 35 6l14 -89q-38 -20 -94 -20z" />
    <glyph glyph-name="uni0E26.aalt" horiz-adv-x="637" 
d="M114 -10q-28 0 -51 5.5t-41 15.5l14 83q12 -4 26 -4q32 0 32 35v73q0 49 20 76.5t61 37.5l1 4l-109 39v26q0 49 28 90t83.5 65.5t138.5 24.5q115 0 182.5 -52.5t67.5 -158.5v-524h-150v515q0 50 -26.5 75t-75.5 25q-47 0 -70 -19.5t-24 -47.5l87 -39l-11 -65
q-57 0 -57 -78v-84q0 -64 -35.5 -91t-90.5 -27z" />
    <glyph glyph-name="doChada-thai.short" horiz-adv-x="637" 
d="M91 -174v17q0 73 43.5 109.5t120.5 36.5q49 0 91.5 -13.5t70.5 -35.5v401q0 50 -26.5 75t-75.5 25q-47 0 -70 -19.5t-24 -47.5l87 -39l-11 -65q-57 0 -57 -78v-78q0 -64 -35.5 -91t-90.5 -27q-28 0 -51 6t-41 15l14 83q12 -4 26 -4q32 0 32 35v67q0 49 20 76.5t61 37.5
l1 4l-109 39v26q0 49 28 90t83.5 65.5t138.5 24.5q115 0 182.5 -52.5t67.5 -158.5v-524h-130q-22 28 -63 44t-76 16t-50.5 -14t-15.5 -37v-9h-141z" />
    <glyph glyph-name="toPatak-thai.short" horiz-adv-x="637" 
d="M61 -174v35q0 47 17 73t45.5 37t63.5 11q41 0 69.5 -16t47.5 -48l57 52l56 -41v412q0 50 -26.5 75t-75.5 25q-47 0 -70 -19.5t-24 -47.5l87 -39l-11 -65q-57 0 -57 -78v-78q0 -64 -35.5 -91t-90.5 -27q-28 0 -51 6t-41 15l14 83q12 -4 26 -4q32 0 32 35v67q0 49 20 76.5
t61 37.5l1 4l-109 39v26q0 49 28 90t83.5 65.5t138.5 24.5q115 0 182.5 -52.5t67.5 -158.5v-524h-126l-69 52l-51 -52h-35q-10 21 -26 37.5t-39 16.5q-24 0 -32 -16t-8 -32v-6h-120z" />
    <glyph glyph-name="yoYing-thai.less" horiz-adv-x="912" 
d="M613 -13q-117 0 -172.5 54t-55.5 170v138q0 53 -25 73.5t-65 20.5q-39 0 -61.5 -16.5t-24.5 -49.5l87 -42l-10 -65q-37 -1 -56 -17.5t-19 -57.5v-61q0 -41 40 -41q20 0 35 6l14 -89q-38 -20 -94 -20q-64 0 -102.5 31.5t-38.5 96.5v65q0 59 25.5 87t72.5 42l1 4l-109 39
v26q0 51 28 91.5t81.5 64.5t130.5 24q69 0 122.5 -21.5t84 -65.5t30.5 -111v-164q0 -49 22 -70.5t58 -21.5t58 21.5t22 70.5v349h150v-337q0 -116 -56 -170t-173 -54z" />
    <glyph glyph-name="thoThan-thai.less" horiz-adv-x="572" 
d="M117 0v230h-57v92h192v-208h7q49 0 76.5 40t27.5 121q0 93 -38.5 130t-113.5 37q-53 0 -95 -14.5t-75 -34.5v125q33 17 83 30t117 13q44 0 80.5 -7.5t61.5 -25.5q33 22 34 56h131q0 -40 -21 -75t-68 -57q26 -26 41 -70.5t15 -110.5q0 -129 -62.5 -200t-208.5 -71h-127z
" />
    <glyph glyph-name="loChula-thai.short" horiz-adv-x="708" 
d="M96 0l-65 548h154l21 -230q4 -41 4.5 -87.5t0.5 -100.5h4q9 34 21 71t29 83l39 107h90l41 -106q13 -32 25.5 -72.5t25.5 -86.5h4q3 48 7.5 84t9.5 74l10 68q6 39 -6.5 59t-51.5 20h-55v93h82q39 0 50.5 15t14.5 45h144q0 -46 -23.5 -78t-79.5 -40v-4q43 -14 55.5 -47
t6.5 -71l-54 -344h-161l-50 149q-11 31 -20 61t-17 68h-4q-8 -38 -17 -67.5t-20 -60.5l-53 -150h-162z" />
    <glyph glyph-name="macronbelowcomb.alt" 
d="M-120 -76v-103h-616v103h616z" />
    <glyph glyph-name="uni0E31.aalt" 
d="M-430 624q-47 0 -74 14t-38.5 35.5t-11.5 45.5q0 37 19 73l109 -14q-2 -7 -3 -14.5t-1 -13.5q0 -14 8.5 -21.5t28.5 -7.5h126v-97h-163z" />
    <glyph glyph-name="glyph99" 
d="M-208 851v186h130v-186h-130z" />
    <glyph glyph-name="glyph100" 
d="M-416 624v227h137v-227h-137z" />
    <glyph glyph-name="glyph102" 
d="M-267 851v41q10 3 24.5 9t25.5 15.5t11 25.5q0 11 -6.5 17.5t-16.5 6.5q-17 0 -29 -10l-18 58q18 14 44.5 18.5t45.5 4.5q38 0 61.5 -15.5t23.5 -50.5q0 -9 -2 -18.5t-7 -17.5h118v-84h-275z" />
    <glyph glyph-name="glyph103" 
d="M-533 623v50q13 4 30 11t29.5 18.5t12.5 30.5q0 30 -28 30q-7 0 -16 -3t-16 -6l-19 67q20 17 49.5 22.5t49.5 5.5q45 0 70.5 -21t25.5 -63q0 -11 -3.5 -23t-11.5 -22h93v-97h-266z" />
    <glyph glyph-name="glyph105" 
d="M-236 847q-51 0 -73.5 27.5t-22.5 65.5q0 40 27 68.5t84 28.5l46 -36l43 36q46 0 76.5 -17.5t30.5 -54.5q0 -22 -10 -38h75v-76h-181v55q11 2 19 11t8 22q0 12 -6.5 20.5t-16.5 9.5l-36 -24h-5l-37 24q-10 0 -16.5 -8.5t-6.5 -22.5q0 -29 29 -29q9 0 17 3l6 -55
q-7 -5 -21 -7.5t-29 -2.5z" />
    <glyph glyph-name="glyph106" 
d="M-506 619q-50 0 -77 30t-27 82q0 54 28 84t74 33l52 -38l48 38q58 -3 82.5 -28.5t24.5 -62.5q0 -26 -9 -46h50v-87h-164v64q13 4 21 13.5t8 26.5q0 19 -8.5 28.5t-18.5 10.5l-31 -22h-4l-30 22q-11 -1 -19 -11t-8 -27q0 -15 8 -26.5t24 -11.5q4 0 9 0.5t11 2.5l7 -64
q-7 -5 -22 -8t-29 -3z" />
    <glyph glyph-name="glyph108" 
d="M-206 851v51h-64v84h64v51h120v-51h65v-84h-65v-51h-120z" />
    <glyph glyph-name="glyph110" 
d="M-231 828q-12 18 -17.5 40t-5.5 42q0 26 13 49t46 37.5t92 14.5h110v-88h-94q-49 0 -49 -37q0 -8 2 -17.5t7 -17.5z" />
    <glyph glyph-name="glyph111" 
d="M-495 602q-8 14 -13.5 36t-5.5 44q0 42 28 71.5t98 29.5h120v-101h-77q-41 0 -41 -30q0 -14 8 -30z" />
    <glyph glyph-name="uni0E47.aalt" 
d="M-358 615q-53 0 -78 45l-39 -42q-58 0 -92 30.5t-34 88.5q0 61 33.5 90.5t77.5 29.5h222v-73h-199q-17 0 -29 -12t-12 -37q0 -18 7.5 -30t23.5 -12l37 43h21q1 -21 9.5 -33.5t24.5 -12.5q13 0 20.5 9.5t7.5 25.5v15h90v-20q0 -54 -25 -79.5t-66 -25.5z" />
    <glyph glyph-name="uni0E34.aalt" 
d="M-639 624v63l82 42h290v-105h-372z" />
    <glyph glyph-name="uni0E35.aalt" 
d="M-639 624v56l82 43h168v74h122v-173h-372z" />
    <glyph glyph-name="uni0E36.aalt" 
d="M-639 624v56l82 43h113v2q0 37 25.5 62t71.5 25q47 0 73.5 -27t26.5 -68q0 -40 -24.5 -66.5t-74.5 -26.5h-293zM-348 677q20 0 30.5 11.5t10.5 28.5q0 18 -11.5 29.5t-30.5 11.5t-30 -11.5t-11 -28.5t10.5 -29t31.5 -12z" />
    <glyph glyph-name="uni0E37.aalt" 
d="M-639 624v56l82 43h77v74h81v-74h50v74h81v-74h1v-99h-372z" />
    <glyph glyph-name="nikhahit_maiEk-thai" 
d="M-181 602q-57 0 -91 26t-34 73t34 73t91 26t91.5 -26t34.5 -73t-34.5 -73t-91.5 -26zM-181 660q22 0 34 11t12 30t-12 30t-34 11q-21 0 -33 -11t-12 -30t12 -30t33 -11zM-238 851v186h130v-186h-130z" />
    <glyph glyph-name="nikhahit_maiTho-thai" 
d="M-181 602q-57 0 -91 26t-34 73t34 73t91 26t91.5 -26t34.5 -73t-34.5 -73t-91.5 -26zM-181 660q22 0 34 11t12 30t-12 30t-34 11q-21 0 -33 -11t-12 -30t12 -30t33 -11zM-297 851v41q10 3 24.5 9t25.5 15.5t11 25.5q0 11 -6.5 17.5t-16.5 6.5q-17 0 -29 -10l-18 58
q18 14 44.5 18.5t45.5 4.5q38 0 61.5 -15.5t23.5 -50.5q0 -9 -2 -18.5t-7 -17.5h118v-84h-275z" />
    <glyph glyph-name="nikhahit_maiTri-thai" 
d="M-181 602q-57 0 -91 26t-34 73t34 73t91 26t91.5 -26t34.5 -73t-34.5 -73t-91.5 -26zM-181 660q22 0 34 11t12 30t-12 30t-34 11q-21 0 -33 -11t-12 -30t12 -30t33 -11zM-266 847q-51 0 -73.5 27.5t-22.5 65.5q0 40 27 68.5t84 28.5l46 -36l43 36q46 0 76.5 -17.5
t30.5 -54.5q0 -22 -10 -38h75v-76h-181v55q11 2 19 11t8 22q0 12 -6.5 20.5t-16.5 9.5l-36 -24h-5l-37 24q-10 0 -16.5 -8.5t-6.5 -22.5q0 -29 29 -29q9 0 17 3l6 -55q-7 -5 -21 -7.5t-29 -2.5z" />
    <glyph glyph-name="nikhahit_maiChattawa-thai" 
d="M-181 602q-57 0 -91 26t-34 73t34 73t91 26t91.5 -26t34.5 -73t-34.5 -73t-91.5 -26zM-181 660q22 0 34 11t12 30t-12 30t-34 11q-21 0 -33 -11t-12 -30t12 -30t33 -11zM-236 851v51h-64v84h64v51h120v-51h65v-84h-65v-51h-120z" />
    <glyph glyph-name="uni0E3A.aalt" 
d="M-150 -384q-38 0 -59 20t-21 57t21 57t59 20q37 0 58 -20t21 -57t-21 -57t-58 -20z" />
    <glyph glyph-name="uni0E38.aalt" 
d="M-197 -433v89q0 25 -22 25q-5 0 -10 -1.5t-10 -2.5l-7 72q14 5 38 10t50 5q49 0 69 -19.5t20 -53.5v-124h-128z" />
    <glyph glyph-name="uni0E39.aalt" 
d="M-225 -448q-80 0 -117 24t-37 63v17q0 17 -9 20.5t-24 -0.5l-7 67q13 6 35.5 8t36.5 2q43 0 63 -16t20 -45v-23q0 -17 7.5 -26.5t27.5 -9.5q21 0 29 9.5t8 26.5v81h122v-97q0 -50 -37 -75.5t-118 -25.5z" />
    <glyph glyph-name="maiChattawa-thai.narrow" 
d="M-458 624v70h-70v87h70v70h120v-70h69v-87h-69v-70h-120z" />
    <glyph glyph-name="nikhahit-thai.narrow" 
d="M-391 602q-57 0 -91 26t-34 73t34 73t91 26t91.5 -26t34.5 -73t-34.5 -73t-91.5 -26zM-391 660q22 0 34 11t12 30t-12 30t-34 11q-21 0 -33 -11t-12 -30t12 -30t33 -11z" />
    <glyph glyph-name="nikhahit_maiEk-thai.narrow" 
d="M-341 602q-57 0 -91 26t-34 73t34 73t91 26t91.5 -26t34.5 -73t-34.5 -73t-91.5 -26zM-341 660q22 0 34 11t12 30t-12 30t-34 11q-21 0 -33 -11t-12 -30t12 -30t33 -11zM-398 851v186h130v-186h-130z" />
    <glyph glyph-name="nikhahit_maiTho-thai.narrow" 
d="M-340 602q-57 0 -91 26t-34 73t34 73t91 26t91.5 -26t34.5 -73t-34.5 -73t-91.5 -26zM-340 660q22 0 34 11t12 30t-12 30t-34 11q-21 0 -33 -11t-12 -30t12 -30t33 -11zM-456 851v41q10 3 24.5 9t25.5 15.5t11 25.5q0 11 -6.5 17.5t-16.5 6.5q-17 0 -29 -10l-18 58
q18 14 44.5 18.5t45.5 4.5q38 0 61.5 -15.5t23.5 -50.5q0 -9 -2 -18.5t-7 -17.5h118v-84h-275z" />
    <glyph glyph-name="nikhahit_maiTri-thai.narrow" 
d="M-341 602q-57 0 -91 26t-34 73t34 73t91 26t91.5 -26t34.5 -73t-34.5 -73t-91.5 -26zM-341 660q22 0 34 11t12 30t-12 30t-34 11q-21 0 -33 -11t-12 -30t12 -30t33 -11zM-426 847q-51 0 -73.5 27.5t-22.5 65.5q0 40 27 68.5t84 28.5l46 -36l43 36q46 0 76.5 -17.5
t30.5 -54.5q0 -22 -10 -38h75v-76h-181v55q11 2 19 11t8 22q0 12 -6.5 20.5t-16.5 9.5l-36 -24h-5l-37 24q-10 0 -16.5 -8.5t-6.5 -22.5q0 -29 29 -29q9 0 17 3l6 -55q-7 -5 -21 -7.5t-29 -2.5z" />
    <glyph glyph-name="nikhahit_maiChattawa-thai.narrow" 
d="M-340 602q-57 0 -91 26t-34 73t34 73t91 26t91.5 -26t34.5 -73t-34.5 -73t-91.5 -26zM-340 660q22 0 34 11t12 30t-12 30t-34 11q-21 0 -33 -11t-12 -30t12 -30t33 -11zM-395 851v51h-64v84h64v51h120v-51h65v-84h-65v-51h-120z" />
    </font>
</defs>
</svg>
