<svg width="32" height="30" viewBox="0 0 32 30" fill="none" xmlns="http://www.w3.org/2000/svg">
<path d="M11.2791 21.3977H1.71563C1.18772 21.3977 0.759277 21.8712 0.759277 22.4547C0.759277 23.0382 1.18772 23.5117 1.71563 23.5117H11.2791C11.807 23.5117 12.2355 23.9874 12.2355 24.5688C12.2355 25.1501 11.807 25.6258 11.2791 25.6258C10.7512 25.6258 10.3228 26.0993 10.3228 26.6828C10.3228 27.2663 10.7512 27.7398 11.2791 27.7398C12.8609 27.7398 14.1482 26.3171 14.1482 24.5688C14.1482 22.8205 12.8609 21.3977 11.2791 21.3977Z" fill="#607D8B"/>
<path d="M1.72821 12.9415H13.3554C14.958 12.9415 16.2622 11.5187 16.2622 9.77042C16.2622 8.02211 14.958 6.59937 13.3554 6.59937C12.8206 6.59937 12.3865 7.07291 12.3865 7.65638C12.3865 8.23986 12.8206 8.7134 13.3554 8.7134C13.8903 8.7134 14.3243 9.18695 14.3243 9.77042C14.3243 10.3539 13.8903 10.8274 13.3554 10.8274H1.72821C1.19336 10.8274 0.759277 11.301 0.759277 11.8845C0.759277 12.4679 1.19336 12.9415 1.72821 12.9415Z" fill="#607D8B"/>
<path d="M20.68 8.00879C20.1564 8.00879 19.7314 8.48233 19.7314 9.06581C19.7314 9.64928 20.1564 10.1228 20.68 10.1228C22.249 10.1228 23.5258 11.5456 23.5258 13.2939C23.5258 15.0422 22.249 16.4649 20.68 16.4649H1.70788C1.18425 16.4649 0.759277 16.9385 0.759277 17.522C0.759277 18.1054 1.18425 18.579 1.70788 18.579H20.68C23.2963 18.579 25.423 16.207 25.423 13.2939C25.423 10.3807 23.2963 8.00879 20.68 8.00879Z" fill="#607D8B"/>
<path d="M21.1951 29.8538C22.3626 29.8538 23.3091 28.9073 23.3091 27.7398C23.3091 26.5722 22.3626 25.6257 21.1951 25.6257C20.0275 25.6257 19.0811 26.5722 19.0811 27.7398C19.0811 28.9073 20.0275 29.8538 21.1951 29.8538Z" fill="#FFC107"/>
<path d="M29.6511 23.5116C30.8187 23.5116 31.7652 22.5652 31.7652 21.3976C31.7652 20.2301 30.8187 19.2836 29.6511 19.2836C28.4836 19.2836 27.5371 20.2301 27.5371 21.3976C27.5371 22.5652 28.4836 23.5116 29.6511 23.5116Z" fill="#FFC107"/>
<path d="M29.6511 10.8274C30.8187 10.8274 31.7652 9.88095 31.7652 8.7134C31.7652 7.54585 30.8187 6.59937 29.6511 6.59937C28.4836 6.59937 27.5371 7.54585 27.5371 8.7134C27.5371 9.88095 28.4836 10.8274 29.6511 10.8274Z" fill="#FFC107"/>
<path d="M22.6048 4.4854C23.7723 4.4854 24.7188 3.53891 24.7188 2.37136C24.7188 1.20381 23.7723 0.257324 22.6048 0.257324C21.4372 0.257324 20.4907 1.20381 20.4907 2.37136C20.4907 3.53891 21.4372 4.4854 22.6048 4.4854Z" fill="#FFC107"/>
</svg>
