<svg width="22" height="26" viewBox="0 0 22 26" fill="none" xmlns="http://www.w3.org/2000/svg">
<path d="M21.0645 2.64803L1.67796 0.147411C1.45178 0.122404 1.21591 0.192422 1.04305 0.349127C0.870183 0.507499 0.77002 0.734222 0.77002 0.974281V10.9767C0.77002 11.2168 0.870183 11.4435 1.04305 11.6019C1.19168 11.7369 1.38231 11.8103 1.57779 11.8103C1.61172 11.8103 1.64564 11.8086 1.67796 11.8036L21.0645 9.303C21.4684 9.25132 21.7721 8.89623 21.7721 8.47613V3.4749C21.7721 3.05479 21.4684 2.69971 21.0645 2.64803Z" fill="#ECEFF1"/>
<path d="M1.54787 25.8117C1.1185 25.8117 0.77002 25.4523 0.77002 25.0095V0.944619C0.77002 0.501825 1.1185 0.142456 1.54787 0.142456C1.97725 0.142456 2.32573 0.501825 2.32573 0.944619V25.0095C2.32573 25.4523 1.97725 25.8117 1.54787 25.8117Z" fill="#455A64"/>
<path d="M19.4386 4.24357C19.4386 3.46075 18.8569 2.79986 18.0804 2.70046C17.1504 2.58139 16.3271 3.30596 16.3271 4.24357V8.48698C16.3271 9.42459 17.1504 10.1492 18.0804 10.0301C18.8569 9.93069 19.4386 9.2698 19.4386 8.48698V4.24357Z" fill="#F44336"/>
<path d="M7.771 9.25697C7.771 10.1973 8.59884 10.9227 9.53105 10.7992C10.3045 10.6967 10.8824 10.0372 10.8824 9.25697V2.69574C10.8824 1.91553 10.3045 1.25599 9.53105 1.1535C8.59884 1.02998 7.771 1.75537 7.771 2.69574V9.25697Z" fill="#F44336"/>
</svg>
