<svg width="23" height="31" viewBox="0 0 23 31" fill="none" xmlns="http://www.w3.org/2000/svg">
<path d="M16.5604 6.97516C15.095 5.01123 13.5813 2.98139 12.3596 0.802798C12.0372 0.228494 11.1379 0.228494 10.8173 0.802798C9.59376 2.98139 8.08006 5.01123 6.61472 6.97516C3.64463 10.9576 0.839355 14.7198 0.839355 19.1692C0.839355 25.4 5.65992 30.467 11.5875 30.467C17.5152 30.467 22.3357 25.4 22.3357 19.1692C22.3357 14.7198 19.5305 10.9576 16.5604 6.97516Z" fill="#2196F3"/>
<path d="M8.72117 15.4195C7.14094 15.4195 5.85498 14.1335 5.85498 12.5533C5.85498 10.9731 7.14094 9.68713 8.72117 9.68713C10.3014 9.68713 11.5874 10.9731 11.5874 12.5533C11.5874 14.1335 10.3014 15.4195 8.72117 15.4195ZM8.72117 11.5979C8.19379 11.5979 7.76577 12.0259 7.76577 12.5533C7.76577 13.0807 8.19379 13.5087 8.72117 13.5087C9.24854 13.5087 9.67656 13.0807 9.67656 12.5533C9.67656 12.0259 9.24854 11.5979 8.72117 11.5979Z" fill="#FAFAFA"/>
<path d="M15.1699 26.1678C13.5897 26.1678 12.3037 24.8818 12.3037 23.3016C12.3037 21.7214 13.5897 20.4354 15.1699 20.4354C16.7501 20.4354 18.0361 21.7214 18.0361 23.3016C18.0361 24.8818 16.7501 26.1678 15.1699 26.1678ZM15.1699 22.3462C14.6444 22.3462 14.2145 22.7761 14.2145 23.3016C14.2145 23.8271 14.6444 24.257 15.1699 24.257C15.6954 24.257 16.1253 23.8271 16.1253 23.3016C16.1253 22.7761 15.6954 22.3462 15.1699 22.3462Z" fill="#FAFAFA"/>
<path d="M6.87068 24.7346C6.61079 24.7346 6.3509 24.6351 6.15192 24.4382C5.756 24.0422 5.756 23.3986 6.15192 23.0026L16.3038 12.8503C16.6998 12.4544 17.3434 12.4544 17.7393 12.8503C18.1352 13.2462 18.1352 13.8899 17.7393 14.2858L7.58741 24.4382C7.39046 24.6351 7.13057 24.7346 6.87068 24.7346Z" fill="#FAFAFA"/>
</svg>
