<svg width="12" height="10" viewBox="0 0 12 10" fill="none" xmlns="http://www.w3.org/2000/svg">
<path fill-rule="evenodd" clip-rule="evenodd" d="M0.219727 9.32687V2.60301H1.73122L1.81468 2.97331C2.16706 2.68097 2.57507 2.50557 3.14999 2.50557C4.45748 2.50557 5.19932 3.13897 5.19932 4.79557C5.19932 6.45218 4.39257 7.31946 3.07581 7.31946C2.65852 7.31946 2.25051 7.22201 1.96305 7.05635V9.32687H0.219727ZM2.6307 5.98443C3.14072 5.98443 3.4189 5.62388 3.4189 4.82481C3.4189 4.05498 3.16853 3.84059 2.64925 3.84059C2.37106 3.84059 2.16706 3.9283 1.96305 4.11345V5.75056C2.15778 5.90647 2.33397 5.98443 2.6307 5.98443ZM5.84843 7.22201V0.946411H7.59175V3.28515H9.65035V0.946411H11.3937V7.22201H9.65035V4.88328H7.59175V7.22201H5.84843Z" fill="#9B9B9B"/>
</svg>
