<svg width="34" height="33" viewBox="0 0 34 33" fill="none" xmlns="http://www.w3.org/2000/svg">
<path d="M16.3736 7.02527C16.151 7.02527 15.9706 7.22485 15.9706 7.47103V14.2047C14.6837 12.9837 13.0537 13.0478 12.9711 13.0519C12.7488 13.0631 12.5767 13.2715 12.5868 13.5174C12.597 13.7634 12.7855 13.9536 13.0077 13.9425C13.0275 13.9416 14.9204 13.8677 15.9707 15.5257V21.9437C15.9707 22.1899 16.1511 22.3894 16.3737 22.3894C16.5962 22.3894 16.7767 22.1899 16.7767 21.9437V7.47109C16.7766 7.22485 16.5962 7.02527 16.3736 7.02527Z" fill="#6DC82A"/>
<path d="M17.4746 7.478V9.12042H21.0609C22.9295 9.12042 24.4583 7.34531 24.4583 5.1758V3.85506C24.4583 3.67745 24.3343 3.53345 24.1813 3.53345H20.872C19.0034 3.53338 17.4746 5.30849 17.4746 7.478Z" fill="#D0EF6F"/>
<path d="M21.6648 3.53345H20.6214C18.8907 3.53345 17.4746 5.30853 17.4746 7.47802V9.12042H18.518V7.47802C18.5181 5.30853 19.9341 3.53345 21.6648 3.53345Z" fill="#B5EF14"/>
<path d="M16.7763 6.9445V9.81871H10.3209C6.95748 9.81871 4.20557 6.71225 4.20557 2.91564V0.421173C4.20557 0.211443 4.35618 0.0415039 4.54191 0.0415039H10.6609C14.0243 0.0415039 16.7763 3.14788 16.7763 6.9445Z" fill="#D0EF6F"/>
<path d="M5.43613 2.91567V0.421241C5.43613 0.211515 5.57782 0.0415039 5.75255 0.0415039H4.52199C4.3472 0.0415039 4.20557 0.211515 4.20557 0.421241V2.91567C4.20557 6.7123 6.79448 9.81871 9.95872 9.81871H11.1893C8.02505 9.81863 5.43613 6.71223 5.43613 2.91567Z" fill="#B5EF14"/>
<path d="M17.1256 22.3894C13.7862 22.3894 10.8885 24.3356 9.44137 27.1868C9.01551 27.0734 8.56891 27.0129 8.10866 27.0129C5.2795 27.0129 2.96798 29.2929 2.80908 32.1666H31.4423C31.2834 29.2929 28.9719 27.0129 26.1427 27.0129C25.6825 27.0129 25.2358 27.0734 24.81 27.1868C23.3628 24.3356 20.4651 22.3894 17.1256 22.3894Z" fill="#CC905E"/>
<path d="M8.39605 27.3199C8.17581 27.2926 7.95107 27.2781 7.72249 27.2781C5.09948 27.2781 2.9564 29.1319 2.80908 31.4683H4.15297C4.28752 29.3345 6.08697 27.6042 8.39605 27.3199Z" fill="#BA7958"/>
<path d="M10.9542 25.8698C12.3712 23.943 14.7425 22.6173 17.4747 22.4169C17.4126 22.4123 17.3504 22.4083 17.288 22.4049C17.2278 22.4016 17.1676 22.3985 17.107 22.3963C17.074 22.3951 17.0408 22.3943 17.0077 22.3934C16.9231 22.3912 16.8383 22.3895 16.7531 22.3894C16.7529 22.3894 16.7527 22.3894 16.7525 22.3894C16.7524 22.3894 16.7524 22.3894 16.7523 22.3894C13.4243 22.3895 10.5364 24.0563 9.09424 26.4982C9.28522 26.4982 9.59413 26.5588 9.77995 26.5763C10.2463 26.6203 10.6954 26.2218 10.9542 25.8698Z" fill="#BA7958"/>
<path d="M33.0565 32.1666H1.19468C0.929143 32.1666 0.713867 32.0103 0.713867 31.8174C0.713867 31.6246 0.929143 31.4683 1.19468 31.4683H33.0565C33.3221 31.4683 33.5373 31.6246 33.5373 31.8174C33.5373 32.0103 33.3221 32.1666 33.0565 32.1666Z" fill="#BA7958"/>
</svg>
