<svg width="12" height="31" viewBox="0 0 12 31" fill="none" xmlns="http://www.w3.org/2000/svg">
<path d="M9.40455 4.39206V17.3004H3.13477V4.39206C3.13477 2.8615 4.53502 1.62598 6.26966 1.62598C8.00429 1.62598 9.40455 2.8615 9.40455 4.39206Z" fill="#90A4AE"/>
<path d="M10.6586 25.0631C10.6586 27.6999 8.55193 29.84 5.95624 29.84C3.36055 29.84 1.25391 27.6999 1.25391 25.0631C1.25391 23.4962 1.98747 22.1204 3.13484 21.2415V9.77673H8.77764V21.2415C9.92501 22.1204 10.6586 23.4962 10.6586 25.0631Z" fill="#F44336"/>
<path d="M5.95629 30.467C2.67239 30.467 0 27.9353 0 24.8242C0 23.1991 0.716741 21.6906 1.98543 20.6184V4.13394C1.98543 2.05927 3.76636 0.37207 5.95629 0.37207C8.14622 0.37207 9.92715 2.05927 9.92715 4.13394V20.6184C11.1958 21.6906 11.9126 23.1991 11.9126 24.8242C11.9126 27.9353 9.24019 30.467 5.95629 30.467ZM5.95629 2.253C4.86232 2.253 3.97086 3.09754 3.97086 4.13394V21.0623C3.97086 21.3577 3.82394 21.636 3.57576 21.8128C2.56518 22.5351 1.98543 23.6317 1.98543 24.8242C1.98543 26.8989 3.76636 28.5861 5.95629 28.5861C8.14622 28.5861 9.92715 26.8989 9.92715 24.8242C9.92715 23.6317 9.3474 22.5351 8.33682 21.8128C8.08864 21.636 7.94172 21.3577 7.94172 21.0623V4.13394C7.94172 3.09754 7.05026 2.253 5.95629 2.253ZM2.97815 21.0623H3.00719H2.97815Z" fill="#ECEFF1"/>
<path d="M6.58305 7.89575C6.06579 7.89575 5.64258 8.31896 5.64258 8.83622C5.64258 9.35348 6.06579 9.77669 6.58305 9.77669H9.40445V7.89575H6.58305Z" fill="#ECEFF1"/>
</svg>
