<svg width="100%" height="100%" viewBox="0 0 20 20" fill="none" xmlns="http://www.w3.org/2000/svg">
<path d="M19.9947 3.38352C19.9938 3.3774 19.992 3.37041 19.9911 3.36429C19.9876 3.34505 19.9831 3.32582 19.9778 3.30746C19.976 3.30047 19.9743 3.29347 19.9716 3.28735C19.9636 3.26375 19.9547 3.24102 19.9432 3.21916C19.9423 3.21654 19.9405 3.21479 19.9387 3.21217C19.9281 3.19294 19.9166 3.1737 19.9041 3.15534C19.8997 3.14922 19.8953 3.14398 19.8908 3.13786C19.8793 3.12212 19.866 3.10726 19.8526 3.09327C19.8482 3.0889 19.8447 3.08453 19.8411 3.08016C19.8251 3.06442 19.8083 3.04956 19.7896 3.03557C19.7878 3.0347 19.7861 3.03295 19.7843 3.03207C19.779 3.02858 19.7736 3.02508 19.7683 3.02158C19.7523 3.01022 19.7355 3.0006 19.7177 2.99099C19.7115 2.98749 19.7044 2.98399 19.6982 2.98049C19.6751 2.96913 19.6511 2.95951 19.6263 2.95164L10.1598 0.0246874C10.0559 -0.00765948 9.94407 -0.00765948 9.84021 0.0246874L0.372836 2.95339H0.371949C0.34798 2.96126 0.324012 2.97088 0.30182 2.98137C0.294718 2.98487 0.287616 2.98836 0.281403 2.99186C0.264536 3.0006 0.24767 3.01109 0.231691 3.02158C0.226365 3.02508 0.221039 3.02858 0.215712 3.03207C0.213937 3.03295 0.212162 3.0347 0.210386 3.03557C0.191744 3.04956 0.174878 3.06442 0.158899 3.08016C0.154461 3.08453 0.15091 3.0889 0.147359 3.09327C0.134043 3.10726 0.120728 3.12212 0.109188 3.13786C0.104749 3.14398 0.100311 3.14922 0.0958722 3.15534C0.0834443 3.1737 0.0710164 3.19206 0.0612517 3.21217C0.060364 3.21479 0.0585885 3.21654 0.0568131 3.21916C0.0461607 3.24102 0.0363959 3.26375 0.0284066 3.28735C0.0257435 3.29435 0.023968 3.30047 0.0221926 3.30746C0.0168664 3.32582 0.0124279 3.34505 0.00887705 3.36429C0.00798935 3.37041 0.00621394 3.37653 0.00532623 3.38352C0.00177541 3.40712 0 3.42985 0 3.45346V17.0068C0 17.2446 0.16245 17.4527 0.395917 17.5139L9.86329 19.9827C9.87395 19.9853 9.88549 19.9871 9.89614 19.9888C9.90413 19.9906 9.91212 19.9923 9.92099 19.9932C9.94674 19.9967 9.97337 19.9993 10 19.9993C10.0266 19.9993 10.0524 19.9967 10.079 19.9932C10.087 19.9923 10.0959 19.9897 10.1039 19.9888C10.1145 19.9871 10.1261 19.9853 10.1367 19.9827L19.6041 17.5139C19.8375 17.4527 20 17.2446 20 17.0068V3.45346C20 3.42985 19.9982 3.40712 19.9947 3.38352ZM14.1838 5.42312L16.174 4.88634V8.56777L14.1838 9.19547V5.42312ZM7.09188 1.98036L14.7261 4.18869L13.5286 4.51216L5.89259 2.35192L7.09188 1.98036ZM10 1.07465L17.5792 3.41936L16.6818 3.66153L8.90723 1.41211L10 1.07465ZM4.03906 2.91842L11.5544 5.04545L10 5.46509L2.42077 3.41936L4.03906 2.91842ZM1.06525 4.14149L9.46738 6.40927V18.7946L1.06525 16.6029V4.14149ZM18.9348 16.6029L10.5326 18.7938V6.40927L13.1185 5.71162V9.91497C13.1185 10.0828 13.2002 10.2402 13.3369 10.339C13.4292 10.4054 13.5393 10.4395 13.6511 10.4395C13.7053 10.4395 13.7603 10.4316 13.8136 10.4142L16.8691 9.45075C17.0892 9.38081 17.2392 9.17886 17.2392 8.95156V4.59871L17.6715 4.48244L18.9348 4.14149V16.6029Z" fill="#828282"/>
</svg>
