<svg width="100%" height="100%" viewBox="0 0 16 11" fill="none" xmlns="http://www.w3.org/2000/svg">
<path d="M15.8066 4.29793C15.8066 4.29178 15.8066 4.29178 15.8066 4.28563C15.8066 4.27334 15.8066 4.26719 15.8066 4.25489C15.8066 4.24874 15.8066 4.24259 15.8066 4.24259C15.8066 4.2303 15.8006 4.22415 15.8006 4.21185C15.8006 4.2057 15.8006 4.2057 15.7946 4.19955C15.7885 4.18726 15.7886 4.17496 15.7826 4.16266L15.1318 2.55785C14.4992 1.00224 13.0292 0 11.3784 0H10.318H7.93819C7.73937 0 7.5767 0.166015 7.5767 0.368921V1.45724H5.715V0.368921C5.715 0.166015 5.55233 0 5.35351 0C5.15469 0 4.99201 0.166015 4.99201 0.368921V1.45724H2.97369V0.368921C2.97369 0.166015 2.81102 0 2.6122 0C2.41338 0 2.25071 0.166015 2.25071 0.368921V1.45724H0.684245C0.485425 1.45724 0.322754 1.62325 0.322754 1.82616C0.322754 2.02907 0.485425 2.19508 0.684245 2.19508H2.25071V3.93516H0.684245C0.485425 3.93516 0.322754 4.10117 0.322754 4.30408V9.25992C0.322754 9.46283 0.485425 9.62884 0.684245 9.62884H1.9374C1.96753 10.3913 2.58207 11 3.33518 11C4.08829 11 4.70283 10.3913 4.73296 9.62884H7.93819H10.9084C10.9386 10.3913 11.5531 11 12.3062 11C13.0593 11 13.6739 10.3913 13.704 9.62884H15.4451C15.644 9.62884 15.8066 9.46283 15.8066 9.25992V4.29793V4.29793ZM11.3724 0.731694C12.7279 0.731694 13.939 1.55562 14.4571 2.83454L14.9029 3.92901H10.6795V0.731694H11.3724V0.731694ZM7.5827 2.19508V3.93516H5.72106V2.19508H7.5827ZM2.97975 2.19508H4.99807V3.93516H2.97975V2.19508ZM1.0518 4.673H7.5827V8.891H4.57028C4.33531 8.4483 3.87143 8.14701 3.34124 8.14701C2.81105 8.14701 2.35314 8.4483 2.11215 8.891H1.0518V4.673ZM3.33518 10.2622C2.96164 10.2622 2.66039 9.95472 2.66039 9.5735C2.66039 9.19229 2.96164 8.88485 3.33518 8.88485C3.70872 8.88485 4.00998 9.19229 4.00998 9.5735C4.00998 9.94857 3.70872 10.2622 3.33518 10.2622ZM12.3122 10.2622C11.9387 10.2622 11.6374 9.95472 11.6374 9.5735C11.6374 9.19229 11.9387 8.88485 12.3122 8.88485C12.6858 8.88485 12.987 9.19229 12.987 9.5735C12.987 9.94857 12.6797 10.2622 12.3122 10.2622ZM13.5413 8.891C13.3063 8.4483 12.8424 8.14701 12.3122 8.14701C11.782 8.14701 11.3242 8.4483 11.0832 8.891H8.30568V4.30408V0.737842H9.96252V4.30408C9.96252 4.50699 10.1252 4.673 10.324 4.673H15.0897V8.891H13.5413Z" fill="white"/>
</svg>
