<svg width="100%" height="100%" viewBox="0 0 14 15" fill="none" xmlns="http://www.w3.org/2000/svg">
<path d="M13.3838 3.45329H10.5602V2.89674C10.5602 1.30085 9.14107 0 7.4001 0C5.65913 0 4.24003 1.30085 4.24003 2.89674V3.45329H1.41644C1.17504 3.45329 0.977539 3.63433 0.977539 3.85561V11.5735C0.977539 13.4645 2.65267 15 4.7155 15H10.092C12.1548 15 13.83 13.4645 13.83 11.5735V3.85561C13.8227 3.63433 13.6252 3.45329 13.3838 3.45329ZM5.11051 2.89674C5.11051 1.74341 6.13461 0.804649 7.39279 0.804649C8.65097 0.804649 9.67506 1.74341 9.67506 2.89674V3.45329H5.11051V2.89674V2.89674ZM12.9449 11.5735C12.9449 13.0219 11.6647 14.1954 10.0847 14.1954H4.70818C3.12815 14.1954 1.84802 13.0219 1.84802 11.5735V4.25793H4.23271V5.51185C4.23271 5.73312 4.43021 5.91417 4.67161 5.91417C4.913 5.91417 5.11051 5.73312 5.11051 5.51185V4.25793H9.67506V5.51185C9.67506 5.73312 9.87257 5.91417 10.114 5.91417C10.3554 5.91417 10.5529 5.73312 10.5529 5.51185V4.25793H12.9375V11.5735H12.9449Z" fill="white"/>
<path d="M9.99717 7.47651C9.79966 7.3491 9.52901 7.38934 9.38271 7.57038L6.81515 10.8896L5.3741 9.42778C5.21317 9.26015 4.9352 9.25344 4.75232 9.40096C4.56945 9.54848 4.56213 9.80328 4.72306 9.97092L6.53718 11.8015C6.61764 11.8887 6.742 11.9356 6.85904 11.9356C6.86635 11.9356 6.87367 11.9356 6.8883 11.9356C7.01997 11.9289 7.14432 11.8685 7.21747 11.768L10.0996 8.03976C10.2459 7.85871 10.1947 7.60391 9.99717 7.47651Z" fill="white"/>
</svg>
