<svg width="19" height="21" viewBox="0 0 19 21" fill="none" xmlns="http://www.w3.org/2000/svg">
<path d="M14.9287 2.00603H14.5548V0.579497C14.5548 0.259808 14.2949 0 13.9751 0C13.6553 0 13.3955 0.259808 13.3955 0.579497V2.00603H5.60551V0.579497C5.60551 0.259808 5.34562 0 5.02583 0C4.70604 0 4.44615 0.259808 4.44615 0.579497V2.00603H4.07226C1.82696 2.00603 0 3.83241 0 6.07699V16.93C0 19.1746 1.82696 21 4.07129 21H14.9277C17.173 21 19 19.1736 19 16.93V6.07699C19 3.83241 17.174 2.00603 14.9287 2.00603ZM4.07129 3.16502H4.44518V4.59155C4.44518 4.91124 4.70507 5.17104 5.02487 5.17104C5.34466 5.17104 5.60455 4.91124 5.60455 4.59155V3.16502H13.3945V4.59155C13.3945 4.91124 13.6544 5.17104 13.9742 5.17104C14.294 5.17104 14.5538 4.91124 14.5538 4.59155V3.16502H14.9277C16.5335 3.16502 17.8406 4.47082 17.8406 6.07699V8.39594H1.15936V6.07699C1.15936 4.47082 2.46557 3.16502 4.07129 3.16502ZM14.9287 19.841H4.07129C2.46557 19.841 1.15936 18.5352 1.15936 16.93V9.55397H17.8406V16.929C17.8406 18.5352 16.5344 19.841 14.9287 19.841Z" fill="#828282"/>
<path d="M13.5674 11.2934C13.3191 11.0906 12.9549 11.1263 12.752 11.3745L8.68748 16.3321L6.19775 13.9939C5.96395 13.7746 5.59778 13.7862 5.37847 14.019C5.15916 14.2527 5.17075 14.6187 5.40359 14.838L8.34547 17.6012C8.45367 17.7026 8.5957 17.7586 8.74255 17.7586C8.75511 17.7586 8.76767 17.7586 8.78023 17.7577C8.94061 17.7471 9.08939 17.6708 9.19084 17.5471L13.6486 12.1105C13.8515 11.8613 13.8148 11.4962 13.5674 11.2934Z" fill="#828282"/>
</svg>
