<svg width="100%" height="100%" viewBox="0 0 15 24" fill="none" xmlns="http://www.w3.org/2000/svg">
<path d="M7.45612 0.141602C5.46498 0.141602 3.6058 1.20472 2.22266 3.13616C0.880578 5.00788 0.141602 7.48653 0.141602 10.1159C0.141602 12.7454 0.880578 15.224 2.22266 17.0957C3.46993 18.8353 5.10234 19.871 6.86963 20.058V23.0173C6.86963 23.3413 7.13257 23.6047 7.45612 23.6047C7.77966 23.6047 8.04261 23.3413 8.04261 23.0173V20.058C9.8099 19.87 11.4433 18.8353 12.6905 17.0957C14.0326 15.224 14.7716 12.7454 14.7716 10.1159C14.7716 7.48653 14.0326 5.00788 12.6905 3.13616C11.3064 1.20472 9.44725 0.141602 7.45612 0.141602ZM8.04261 18.8745V15.3718L11.0845 12.9147C11.3367 12.7111 11.3758 12.3411 11.1725 12.0885C10.9692 11.8359 10.5997 11.7968 10.3475 12.0004L8.04261 13.8623V7.16349C8.04261 6.83946 7.77966 6.57613 7.45612 6.57613C7.13257 6.57613 6.86963 6.83946 6.86963 7.16349V10.1874L4.89706 8.70237C4.63803 8.50756 4.27049 8.55944 4.07598 8.81886C3.88146 9.07828 3.93326 9.44636 4.1923 9.64117L6.86963 11.6578V18.8745C3.75732 18.4496 1.31458 14.6836 1.31458 10.1159C1.31458 5.26436 4.07011 1.31632 7.45612 1.31632C10.8421 1.31632 13.5977 5.26338 13.5977 10.1159C13.5977 14.6836 11.1549 18.4496 8.04261 18.8745Z" fill="#828282"/>
</svg>
