<svg width="100%" height="100%" viewBox="0 0 21 22" fill="none" xmlns="http://www.w3.org/2000/svg">
<path d="M14.2223 12.668H6.0026C2.77103 12.668 0.141602 15.3013 0.141602 18.5376V21.2043C0.141602 21.5283 0.404545 21.7916 0.728092 21.7916H19.4968C19.8203 21.7916 20.0833 21.5283 20.0833 21.2043V18.5376C20.0833 15.3013 17.4538 12.668 14.2223 12.668ZM18.9103 20.6179H1.31458V18.5386C1.31458 15.9493 3.41813 13.8437 6.0026 13.8437H14.2223C16.8077 13.8437 18.9103 15.9503 18.9103 18.5386V20.6179Z" fill="#828282"/>
<path d="M2.25397 5.18996H4.6664C4.65565 5.32995 4.64881 5.47189 4.64881 5.61482C4.64881 8.63287 7.10034 11.088 10.1139 11.088C13.1275 11.088 15.579 8.63287 15.579 5.61482C15.579 5.47189 15.5722 5.32995 15.5614 5.18996H17.9739C18.2974 5.18996 18.5604 4.92663 18.5604 4.6026C18.5604 4.27857 18.2974 4.01524 17.9739 4.01524H15.3415C14.6543 1.77544 12.5703 0.141602 10.1129 0.141602C7.65555 0.141602 5.57155 1.77544 4.88634 4.01524H2.25397C1.93042 4.01524 1.66748 4.27857 1.66748 4.6026C1.66748 4.92663 1.92945 5.18996 2.25397 5.18996ZM14.4041 5.61482C14.4041 7.98481 12.4785 9.91331 10.112 9.91331C7.74548 9.91331 5.81983 7.98481 5.81983 5.61482C5.81983 5.47189 5.82765 5.32995 5.84134 5.18996H14.3826C14.3973 5.32897 14.4041 5.47091 14.4041 5.61482ZM10.1129 1.31632C11.9154 1.31632 13.4599 2.43524 14.0952 4.01524H6.13067C6.76506 2.43524 8.31046 1.31632 10.1129 1.31632Z" fill="#828282"/>
</svg>
