<svg width="21" height="20" viewBox="0 0 21 20" fill="none" xmlns="http://www.w3.org/2000/svg">
<path d="M0.56305 3.02348H2.35543C2.6088 4.10329 3.58475 4.92019 4.74839 4.92019C5.91202 4.92019 6.87859 4.10329 7.13197 3.02348H20.2041C20.5138 3.02348 20.7672 2.76995 20.7672 2.46009C20.7672 2.15024 20.5138 1.89671 20.2041 1.89671H7.13197C6.87859 0.807512 5.90264 0 4.739 0C3.57537 0 2.6088 0.807512 2.35543 1.89671H0.56305C0.253373 1.89671 0 2.15024 0 2.46009C0 2.76995 0.253373 3.02348 0.56305 3.02348ZM4.739 1.12676C5.47097 1.12676 6.07156 1.7277 6.07156 2.46009C6.07156 3.19249 5.47097 3.79343 4.739 3.79343C4.00704 3.79343 3.40645 3.19249 3.40645 2.46009C3.40645 1.7277 4.00704 1.12676 4.739 1.12676Z" fill="#828282"/>
<path d="M20.2041 9.43656H17.8956C17.6704 8.31919 16.6757 7.47412 15.4933 7.47412C14.3109 7.47412 13.3161 8.31919 13.0909 9.43656H0.56305C0.253373 9.43656 0 9.69008 0 9.99994C0 10.3098 0.253373 10.5633 0.56305 10.5633H13.1191C13.4006 11.615 14.3578 12.3849 15.4933 12.3849C16.6287 12.3849 17.5859 11.615 17.8675 10.5633H20.2135C20.5232 10.5633 20.7766 10.3098 20.7766 9.99994C20.7766 9.69008 20.5138 9.43656 20.2041 9.43656ZM15.4839 11.2582C14.7519 11.2582 14.1513 10.6572 14.1513 9.92482C14.1513 9.19243 14.7519 8.59149 15.4839 8.59149C16.2158 8.59149 16.8164 9.19243 16.8164 9.92482C16.8164 10.6572 16.2158 11.2582 15.4839 11.2582Z" fill="#828282"/>
<path d="M20.2041 16.9767H12.7719C12.5185 15.8969 11.5425 15.08 10.3789 15.08C9.21525 15.08 8.24868 15.8875 7.98593 16.9767H0.56305C0.253373 16.9767 0 17.2302 0 17.54C0 17.8499 0.253373 18.1034 0.56305 18.1034H7.99531C8.24868 19.1832 9.22464 20.0001 10.3883 20.0001C11.5519 20.0001 12.5185 19.1926 12.7812 18.1034H20.2135C20.5232 18.1034 20.7766 17.8499 20.7766 17.54C20.7766 17.2302 20.5138 16.9767 20.2041 16.9767ZM10.3789 18.8734C9.64693 18.8734 9.04634 18.2724 9.04634 17.54C9.04634 16.8077 9.64693 16.2067 10.3789 16.2067C11.1109 16.2067 11.7114 16.8077 11.7114 17.54C11.7114 18.2724 11.1109 18.8734 10.3789 18.8734Z" fill="#828282"/>
</svg>
