<svg width="17" height="14" viewBox="0 0 17 14" fill="none" xmlns="http://www.w3.org/2000/svg">
<path d="M16.5053 2.57533H14.3618L14.774 0.531462C14.8235 0.284401 14.6421 0.0523143 14.3783 0.00739425C14.1062 -0.0375258 13.8506 0.127181 13.8012 0.366755L13.356 2.57533H5.60621L6.01843 0.531462C6.0679 0.284401 5.88652 0.0523143 5.6227 0.00739425C5.35063 -0.0375258 5.09505 0.127181 5.04559 0.366755L4.60039 2.56784H2.08584C1.81377 2.56784 1.59117 2.76998 1.59117 3.01704C1.59117 3.2641 1.81377 3.46624 2.08584 3.46624H4.41901L2.99273 10.5187H0.494665C0.222599 10.5187 0 10.7208 0 10.9679C0 11.215 0.222599 11.4171 0.494665 11.4171H2.81135L2.39913 13.461C2.34966 13.708 2.53104 13.9401 2.79486 13.985C2.82784 13.9925 2.85257 13.9925 2.88555 13.9925C3.11639 13.9925 3.33075 13.8428 3.37197 13.6257L3.81717 11.4246H11.5669L11.1547 13.4684C11.1052 13.7155 11.2866 13.9476 11.5504 13.9925C11.5834 14 11.6081 14 11.6411 14C11.872 14 12.0863 13.8503 12.1275 13.6332L12.5727 11.4321H14.9142C15.1862 11.4321 15.4088 11.2299 15.4088 10.9829C15.4088 10.7358 15.1862 10.5337 14.9142 10.5337H12.7541L14.1804 3.47373H16.5053C16.7774 3.47373 17 3.27159 17 3.02453C17 2.77747 16.7774 2.57533 16.5053 2.57533ZM11.7483 10.5262H3.99855L5.42483 3.47373H13.1746L11.7483 10.5262Z" fill="#828282"/>
</svg>
