<svg width="100%" height="100%" viewBox="0 0 18 21" fill="none" xmlns="http://www.w3.org/2000/svg">
<path d="M13.5263 0.141602H4.07695C1.90694 0.141602 0.141602 1.90956 0.141602 4.08279V16.6484C0.141602 18.8216 1.90694 20.5896 4.07695 20.5896H13.5263C15.6963 20.5896 17.4616 18.8216 17.4616 16.6484V4.08279C17.4616 1.90956 15.6963 0.141602 13.5263 0.141602ZM11.9916 1.47882V2.32952C11.9916 2.74948 11.6505 3.09113 11.2312 3.09113H6.37306C5.95372 3.09113 5.61258 2.74948 5.61258 2.32952V1.47882H11.9916ZM16.2887 16.6484C16.2887 18.1736 15.0492 19.4148 13.5263 19.4148H4.07695C2.55403 19.4148 1.31458 18.1736 1.31458 16.6484V4.08279C1.31458 2.55761 2.55403 1.31632 4.07695 1.31632H4.43862V2.32952C4.43862 3.39753 5.30663 4.26585 6.37209 4.26585H11.2302C12.2966 4.26585 13.1636 3.39656 13.1636 2.32952V1.31632H13.5253C15.0482 1.31632 16.2877 2.55761 16.2877 4.08279V16.6484H16.2887Z" fill="#828282"/>
<path d="M13.3015 7.36133H4.3028C3.97925 7.36133 3.71631 7.62466 3.71631 7.94869C3.71631 8.27272 3.97925 8.53605 4.3028 8.53605H13.3015C13.6251 8.53605 13.888 8.27272 13.888 7.94869C13.888 7.62466 13.6251 7.36133 13.3015 7.36133Z" fill="#828282"/>
<path d="M13.3015 10.8306H4.3028C3.97925 10.8306 3.71631 11.0939 3.71631 11.4179C3.71631 11.742 3.97925 12.0053 4.3028 12.0053H13.3015C13.6251 12.0053 13.888 11.742 13.888 11.4179C13.888 11.0939 13.6251 10.8306 13.3015 10.8306Z" fill="#828282"/>
<path d="M13.3015 14.2988H4.3028C3.97925 14.2988 3.71631 14.5622 3.71631 14.8862C3.71631 15.2102 3.97925 15.4735 4.3028 15.4735H13.3015C13.6251 15.4735 13.888 15.2102 13.888 14.8862C13.888 14.5622 13.6251 14.2988 13.3015 14.2988Z" fill="#828282"/>
</svg>
