<svg width="17" height="20" viewBox="0 0 17 20" fill="none" xmlns="http://www.w3.org/2000/svg">
<path d="M8.49948 20C8.39945 20 8.30046 19.9766 8.20981 19.9307C7.92014 19.7828 1.1118 16.2267 0.116702 9.69567C0.0395955 9.24096 0 8.77708 0 8.31626C0 3.73044 3.81263 0 8.49948 0C13.1863 0 16.999 3.73044 16.999 8.31626C16.999 8.77708 16.9594 9.24096 16.8823 9.69567C15.8872 16.2267 9.07882 19.7818 8.78915 19.9297C8.69954 19.9776 8.59951 20 8.49948 20ZM8.49948 1.22343C4.50242 1.22343 1.25038 4.40536 1.25038 8.31626C1.25038 8.71081 1.28477 9.10843 1.35146 9.4989C1.3525 9.50298 1.3525 9.50604 1.35354 9.51012C2.14337 14.7097 7.22305 17.9467 8.49948 18.6848C9.77487 17.9457 14.8587 14.6985 15.6465 9.51012C15.6465 9.50604 15.6475 9.50298 15.6485 9.4989C15.7152 9.10843 15.7496 8.71081 15.7496 8.31626C15.7496 4.40536 12.4976 1.22343 8.49948 1.22343Z" fill="#828282"/>
<path d="M8.49929 12.8011C6.02666 12.8011 4.01562 10.8334 4.01562 8.41411C4.01562 5.99478 6.0277 4.0271 8.49929 4.0271C10.9709 4.0271 12.983 5.99478 12.983 8.41411C12.983 10.8334 10.9719 12.8011 8.49929 12.8011ZM8.49929 5.25053C6.71645 5.25053 5.26601 6.66971 5.26601 8.41411C5.26601 10.1585 6.71645 11.5777 8.49929 11.5777C10.2821 11.5777 11.7326 10.1585 11.7326 8.41411C11.7326 6.66971 10.2832 5.25053 8.49929 5.25053Z" fill="#828282"/>
</svg>
