<svg width="100%" height="100%" viewBox="0 0 20 17" fill="none" xmlns="http://www.w3.org/2000/svg">
<path d="M16.7807 16.5467H3.13376C1.50744 16.5467 0.181641 15.2335 0.181641 13.6226V2.92413C0.181641 1.31323 1.50744 0 3.13376 0H16.7807C18.407 0 19.7328 1.31323 19.7328 2.92413V13.6138C19.7416 15.2335 18.4158 16.5467 16.7807 16.5467ZM3.13376 1.05059C2.09079 1.05059 1.24228 1.89105 1.24228 2.92413V13.6138C1.24228 14.6469 2.09079 15.4874 3.13376 15.4874H16.7807C17.8236 15.4874 18.6721 14.6469 18.6721 13.6138V2.92413C18.6721 1.89105 17.8236 1.05059 16.7807 1.05059H3.13376Z" fill="#4F4F4F"/>
<path d="M9.95761 8.7985C9.84271 8.7985 9.72781 8.76348 9.63058 8.68469L2.10887 2.81016C1.87907 2.62631 1.84371 2.30238 2.02049 2.07475C2.2061 1.84712 2.53313 1.8121 2.76294 1.9872L9.94877 7.59908L16.8341 1.99596C17.0639 1.8121 17.3909 1.84712 17.5766 2.066C17.7622 2.28487 17.7268 2.61755 17.5058 2.80141L10.2935 8.67593C10.1963 8.75473 10.0814 8.7985 9.95761 8.7985Z" fill="#4F4F4F"/>
</svg>
