<svg width="100%" height="100%" viewBox="0 0 17 21" fill="none" xmlns="http://www.w3.org/2000/svg">
<path d="M16.4059 7.10467H13.5149V4.96542C13.505 2.22757 11.2574 0 8.49505 0C5.73267 0 3.48515 2.22757 3.48515 4.96542V7.10467H0.594059C0.267327 7.10467 0 7.36963 0 7.69346V17.3103C0 19.3416 1.67327 21 3.72277 21H13.2673C15.3168 21 16.9901 19.3416 16.9901 17.3103V7.69346C17 7.36963 16.7327 7.10467 16.4059 7.10467ZM4.67327 4.96542C4.67327 2.87523 6.39604 1.17757 8.49505 1.17757C10.604 1.17757 12.3168 2.87523 12.3168 4.96542V7.10467H4.67327V4.96542ZM15.8119 17.3005C15.8119 18.6841 14.6733 19.8126 13.2772 19.8126H3.72277C2.32673 19.8224 1.18812 18.6939 1.18812 17.3005V8.27243H4.07921H12.9109H15.802V17.3005H15.8119Z" fill="#4F4F4F"/>
<path d="M8.49549 11.4224C7.6935 11.4224 7.04004 12.07 7.04004 12.8649C7.04004 13.3359 7.26776 13.7579 7.6242 14.0228V16.6626H9.34697V14.0425C9.71331 13.7775 9.96083 13.3555 9.96083 12.8649C9.96083 12.07 9.30737 11.4224 8.49549 11.4224Z" fill="#4F4F4F"/>
</svg>
