<svg width="15" height="19" viewBox="0 0 15 19" fill="none" xmlns="http://www.w3.org/2000/svg">
<path d="M3.38361 0.584961H11.4832C12.9903 0.584961 14.2153 1.82322 14.2153 3.34661V15.9084C14.2153 17.4318 12.9903 18.6701 11.4832 18.6701H3.38361C1.87652 18.6701 0.651503 17.4318 0.651503 15.9084V3.34661C0.651503 1.82322 1.87652 0.584961 3.38361 0.584961ZM1.61862 15.9084C1.61862 16.8941 2.40843 17.6925 3.38361 17.6925H11.4832C12.4584 17.6925 13.2482 16.8941 13.2482 15.9084V3.34661C13.2482 2.36089 12.4584 1.56253 11.4832 1.56253H3.38361C2.40843 1.56253 1.61862 2.36089 1.61862 3.34661V15.9084Z" fill="#333333"/>
<path d="M7.43773 16.324C7.00153 16.324 6.64791 15.9666 6.64791 15.5256C6.64791 15.0847 7.00153 14.7273 7.43773 14.7273C7.87393 14.7273 8.22754 15.0847 8.22754 15.5256C8.22754 15.9666 7.87393 16.324 7.43773 16.324Z" fill="#333333"/>
<path d="M6.15598 2.59717H8.71078C8.97673 2.59717 9.19434 2.81712 9.19434 3.08595C9.19434 3.35479 8.97673 3.57474 8.71078 3.57474H6.15598C5.89002 3.57474 5.67242 3.35479 5.67242 3.08595C5.67242 2.81712 5.89002 2.59717 6.15598 2.59717Z" fill="#333333"/>
</svg>
