<svg width="100%" height="100%" viewBox="0 0 12 15" fill="none" xmlns="http://www.w3.org/2000/svg">
<path d="M11.0671 0.0339981C10.9222 -0.0319024 10.7574 0.00104783 10.6388 0.106489L9.15603 1.47722L8.02254 0.146029C7.95005 0.0603583 7.84461 0.00763788 7.73258 0.00763788C7.62055 0.00763788 7.50852 0.0537683 7.43602 0.132849L6.21028 1.45745L5.03066 0.132849C4.95817 0.0471782 4.84614 0.00104787 4.7341 0.00104787C4.62207 0.00104787 4.51663 0.0471782 4.43755 0.132849L3.25134 1.45745L2.02559 0.126259C1.94651 0.0405881 1.83448 -0.00554218 1.72245 0.00104787C1.60383 0.00763792 1.49839 0.0603583 1.4259 0.152619L0.114479 1.80013C0.0617588 1.86603 0.0288086 1.9517 0.0288086 2.04396V14.6046C0.0288086 14.7628 0.121069 14.9011 0.26605 14.9671C0.318771 14.9868 0.371491 15 0.424212 15C0.523062 15 0.615323 14.9671 0.694404 14.8946L2.17716 13.5238L3.31065 14.855C3.38314 14.9407 3.48858 14.9934 3.60062 14.9934C3.71265 15 3.82468 14.9473 3.89717 14.8682L5.12951 13.537L6.30913 14.8616C6.38162 14.9473 6.49365 14.9934 6.60568 14.9934C6.71771 14.9934 6.82315 14.9473 6.90223 14.8616L8.08844 13.537L9.32078 14.8682C9.39986 14.9539 9.51189 15 9.62392 14.9934C9.74254 14.9868 9.84798 14.9341 9.92047 14.8418L11.2319 13.1943C11.2846 13.1218 11.3176 13.0362 11.3176 12.9505V0.396451C11.3044 0.23829 11.2121 0.0933086 11.0671 0.0339981ZM10.5136 12.8187L9.57779 13.9983L8.36522 12.6869C8.29273 12.6078 8.1807 12.5617 8.06867 12.5617C7.95664 12.5617 7.8512 12.6078 7.77871 12.6935L6.59909 14.0115L5.42606 12.6935C5.35357 12.6078 5.24813 12.5617 5.1361 12.5617C5.1361 12.5617 5.1361 12.5617 5.12951 12.5617C5.01748 12.5617 4.91204 12.6078 4.83954 12.6869L3.6138 14.0115L2.50667 12.7001C2.43418 12.621 2.33533 12.5683 2.22989 12.5617C2.12444 12.5551 2.019 12.5946 1.93992 12.6671L0.819615 13.7018V2.18235L1.7554 1.00274L2.96797 2.31416C3.04046 2.39324 3.15249 2.44596 3.26452 2.43937C3.37655 2.43937 3.48199 2.39324 3.55449 2.30757L4.7341 0.989555L5.90713 2.30757C5.97962 2.39324 6.08506 2.43937 6.19709 2.43937C6.30913 2.43937 6.41457 2.39324 6.49365 2.31416L7.7194 0.989555L8.82652 2.30098C8.89902 2.38006 8.99787 2.43278 9.10331 2.43937C9.20875 2.44596 9.31419 2.40642 9.39327 2.33393L10.5136 1.29929V12.8187Z" fill="white"/>
<path d="M6.73752 7.17763C6.90886 6.94039 7.00771 6.65043 7.00771 6.33411C7.00771 5.6092 6.47392 5.00951 5.78196 4.90407V4.42958C5.78196 4.21211 5.60403 4.03418 5.38656 4.03418C5.16909 4.03418 4.99116 4.21211 4.99116 4.42958V4.89089H4.25966C4.04219 4.89089 3.86426 5.06882 3.86426 5.28629V9.50392C3.86426 9.72139 4.04219 9.89932 4.25966 9.89932H4.99775V10.5781C4.99775 10.7956 5.17568 10.9735 5.39315 10.9735C5.61062 10.9735 5.78855 10.7956 5.78855 10.5781V9.89932H6.02579C6.82319 9.89932 7.47561 9.24691 7.47561 8.44951C7.47561 7.90254 7.17905 7.42806 6.73752 7.17763ZM4.65506 5.6751H5.56449C5.92694 5.6751 6.2235 5.97165 6.2235 6.33411C6.2235 6.69656 5.92694 6.99311 5.56449 6.99311H4.65506V5.6751ZM6.02579 9.10193H4.65506V7.78392H6.02579C6.38825 7.78392 6.6848 8.08047 6.6848 8.44292C6.6848 8.80538 6.38825 9.10193 6.02579 9.10193Z" fill="white"/>
</svg>
