<svg width="100%" height="100% " viewBox="0 0 14 14" fill="none" xmlns="http://www.w3.org/2000/svg">
<g clip-path="url(#clip0)">
<path d="M13.8883 13.3234L11.3524 10.7875C12.4101 9.59834 12.9817 8.08732 12.9817 6.48431C12.9817 4.74992 12.305 3.12063 11.0831 1.8921C8.54716 -0.630656 4.43454 -0.630656 1.89864 1.89867C0.676678 3.1272 0 4.75649 0 6.49088C0 8.22528 0.676678 9.85456 1.89864 11.0831C3.16659 12.351 4.82872 12.9817 6.49085 12.9817C8.02816 12.9817 9.56546 12.4365 10.794 11.3525L13.3299 13.8883C13.4087 13.9672 13.5073 14.0066 13.6058 14.0066C13.7044 14.0066 13.8095 13.9672 13.8817 13.8883C14.0394 13.7307 14.0394 13.481 13.8883 13.3234ZM2.45706 10.5181C1.37963 9.44067 0.788362 8.00848 0.788362 6.49088C0.788362 4.97329 1.37963 3.53453 2.45706 2.4571C3.56734 1.34682 5.03238 0.788396 6.49085 0.788396C7.94932 0.788396 9.41436 1.34682 10.5246 2.4571C11.6021 3.53453 12.1933 4.96672 12.1933 6.49088C12.1933 8.01505 11.6021 9.44724 10.5246 10.5247C8.29751 12.7452 4.68419 12.7452 2.45706 10.5181Z" fill="#B1B7C3"/>
</g>
<defs>
<clipPath id="clip0">
<rect width="14" height="14" fill="white"/>
</clipPath>
</defs>
</svg>
