<svg width="100%" height="100%" viewBox="0 0 18 23" fill="none" xmlns="http://www.w3.org/2000/svg">
<path d="M10.2497 5.90057C10.9271 5.52956 11.4716 5.04107 11.8753 4.43511C13.0287 2.70142 12.5703 0.678943 12.5498 0.593776C12.5136 0.440084 12.4168 0.306949 12.2819 0.225697C12.147 0.144446 11.9848 0.120951 11.8323 0.160109C9.15986 0.853193 8.08757 2.43711 7.65747 3.64413C7.3613 4.47623 7.32707 5.24175 7.34271 5.69891C6.40433 4.50657 5.24503 3.83405 5.16684 3.78901C4.88434 3.62847 4.52659 3.72832 4.36726 4.01025C4.20793 4.29219 4.30666 4.65048 4.58817 4.81102C4.60283 4.81885 5.4161 5.28972 6.15898 6.11398C2.67914 7.17808 0.141602 10.4232 0.141602 14.2509C0.141602 18.9409 3.95183 22.7568 8.63496 22.7568C13.3181 22.7568 17.1283 18.9409 17.1283 14.2509C17.1273 10.1149 14.1626 6.65925 10.2497 5.90057ZM11.4785 1.49831C11.5009 2.09057 11.4247 2.99902 10.8929 3.79293C10.4003 4.52713 9.60071 5.04107 8.51179 5.32594C8.55089 4.33134 8.97023 2.41361 11.4785 1.49831ZM8.63398 21.5831C4.59795 21.5831 1.3136 18.2939 1.3136 14.2519C1.3136 10.8109 3.69377 7.91816 6.89112 7.13207C7.14722 7.6 7.33002 8.12863 7.36423 8.70913C7.3828 9.02141 7.64085 9.26125 7.94876 9.26125C7.96049 9.26125 7.97222 9.26125 7.98395 9.26027C8.3075 9.24069 8.55382 8.96268 8.53427 8.63865C8.49713 8.01899 8.33682 7.45218 8.10516 6.94118C8.28013 6.92845 8.45608 6.91964 8.63398 6.91964C12.67 6.91964 15.9544 10.2089 15.9544 14.2509C15.9544 18.2929 12.67 21.5831 8.63398 21.5831Z" fill="#828282"/>
</svg>
