<svg width="712" height="162" viewBox="0 0 712 162" fill="none" xmlns="http://www.w3.org/2000/svg">
<mask id="mask0" mask-type="alpha" maskUnits="userSpaceOnUse" x="0" y="0" width="712" height="162">
<path d="M0.51087 15C0.51087 6.99788 6.99787 0.51087 15 0.51087H697C705.002 0.51087 711.489 6.99788 711.489 15V161.489H0.51087V15Z" fill="white" stroke="#E0E0E0" stroke-width="1.02174"/>
</mask>
<g mask="url(#mask0)">
<g clip-path="url(#clip0)">
<path d="M476.593 -316.185C476.593 -316.185 401.08 -273.83 314.982 -333.848C228.884 -393.867 37.1343 -471.311 -19.4414 -209.301C-76.0172 52.7095 -12.1796 262.156 202.495 187.276C417.169 112.395 385.939 247.294 487.984 290.504C590.029 333.713 730.187 243.543 776.463 19.4715C822.74 -204.6 674.94 -397.096 476.593 -316.185Z" fill="#CFE7F7"/>
<path d="M674.767 69.4277C674.62 64.4405 670.378 60.4423 665.167 60.4423C664.154 60.4423 663.185 60.5977 662.275 60.8662C659.383 56.8821 654.583 54.2684 649.137 54.2684C643.383 54.2684 638.333 57.207 635.515 61.6008C634.135 60.8662 632.55 60.4423 630.862 60.4423C625.621 60.4423 621.364 64.4829 621.247 69.4983C606.582 69.8515 596.835 70.4732 596.835 71.1796C596.835 72.2815 620.454 73.1716 649.607 73.1716C678.759 73.1716 702.378 72.2815 702.378 71.1796C702.378 70.4166 691.207 69.7668 674.767 69.4277Z" fill="white"/>
<path d="M559.47 105.457C594.648 105.457 623.165 76.9393 623.165 41.7611C623.165 6.58296 594.648 -21.9346 559.47 -21.9346C524.291 -21.9346 495.774 6.58296 495.774 41.7611C495.774 76.9393 524.291 105.457 559.47 105.457Z" fill="#FFF033"/>
<path d="M527.635 31.6748C532.968 31.6748 532.968 23.3847 527.635 23.3847C522.302 23.3847 522.302 31.6748 527.635 31.6748Z" fill="#47250E"/>
<path d="M579.393 27.6956C584.727 27.6956 584.727 19.4055 579.393 19.4055C574.06 19.4055 574.032 27.6956 579.393 27.6956Z" fill="#47250E"/>
<path d="M509.479 47.3431C522.163 85.754 596.94 73.7609 596.498 32.9183C596.47 30.2655 592.325 30.2379 592.353 32.9183C592.74 68.6211 524.65 80.0614 513.486 46.2378C512.629 43.7231 508.623 44.8008 509.479 47.3431Z" fill="#47250E"/>
<path d="M554.992 107.06C554.992 118.141 554.992 129.194 554.992 140.275C554.992 145.609 563.282 145.609 563.282 140.275C563.282 129.194 563.282 118.141 563.282 107.06C563.282 101.726 554.992 101.726 554.992 107.06Z" fill="#FFF033"/>
<path d="M622.087 48.2827C633.168 48.2827 644.222 48.2827 655.303 48.2827C660.636 48.2827 660.636 39.9926 655.303 39.9926C644.222 39.9926 633.168 39.9926 622.087 39.9926C616.754 39.9926 616.726 48.2827 622.087 48.2827Z" fill="#FFF033"/>
<path d="M463 48.2827C474.081 48.2827 485.135 48.2827 496.216 48.2827C501.549 48.2827 501.549 39.9926 496.216 39.9926C485.135 39.9926 474.081 39.9926 463 39.9926C457.667 39.9926 457.667 48.2827 463 48.2827Z" fill="#FFF033"/>
<path d="M600.726 91.557C608.547 99.3774 616.367 107.198 624.215 115.046C628.001 118.831 633.859 112.973 630.073 109.187C622.253 101.367 614.405 93.519 606.585 85.6987C602.799 81.9129 596.94 87.7989 600.726 91.557Z" fill="#FFF033"/>
<path d="M488.229 -20.9121C496.05 -13.0918 503.898 -5.27145 511.718 2.57652C515.504 6.36234 521.362 0.503988 517.576 -3.28183C509.756 -11.1022 501.936 -18.9225 494.088 -26.7705C490.329 -30.5563 484.471 -24.6979 488.229 -20.9121Z" fill="#FFF033"/>
<path d="M606.585 2.57652C614.405 -5.24382 622.225 -13.0642 630.073 -20.9121C633.859 -24.6979 628.001 -30.5563 624.215 -26.7705C616.395 -18.9501 608.574 -11.1298 600.726 -3.28183C596.94 0.476353 602.799 6.3347 606.585 2.57652Z" fill="#FFF033"/>
<path d="M494.115 115.046C501.936 107.225 509.756 99.405 517.604 91.557C521.39 87.7712 515.531 81.9128 511.746 85.6986C503.925 93.519 496.105 101.339 488.257 109.187C484.471 112.973 490.33 118.831 494.115 115.046Z" fill="#FFF033"/>
<path d="M250.565 95.7691C249.914 72.8161 231.103 54.4148 207.996 54.4148C203.505 54.4148 199.209 55.1301 195.173 56.3655C182.35 38.0292 161.066 26 136.917 26C111.402 26 89.0106 39.5247 76.5132 59.7467C70.3947 56.3655 63.365 54.4148 55.8796 54.4148C32.6423 54.4148 13.7661 73.0112 13.2454 96.0942C-51.78 97.7197 -95 100.581 -95 103.832C-95 108.904 9.73047 113 139 113C268.27 113 373 108.904 373 103.832C373 100.321 323.466 97.3296 250.565 95.7691Z" fill="white"/>
<path d="M78.0659 87.9717L115.457 84.789C122.125 84.2201 126.445 77.4993 124.205 71.2052L98.7262 -0.252362C95.1702 -10.1913 80.7151 -8.85786 79.0438 1.56118L67.1312 76.1836C66.0822 82.7444 71.4695 88.5406 78.0659 87.9717Z" fill="#C9EA53"/>
<path d="M100.219 107.53C99.7572 107.53 99.3838 107.174 99.3304 106.729C96.7523 78.5483 93.0719 50.1004 88.378 22.1859C88.2891 21.7058 88.6269 21.2436 89.107 21.1547C89.587 21.0658 90.0493 21.4036 90.1382 21.8836C94.8321 49.8337 98.5303 78.3172 101.108 106.552C101.144 107.05 100.788 107.476 100.308 107.512C100.273 107.53 100.237 107.53 100.219 107.53Z" fill="white"/>
<path d="M92.3072 44.0197C92.1471 44.0197 91.9871 43.9841 91.8449 43.8775C87.8266 41.3883 82.5104 37.4767 78.9189 34.4007C78.5455 34.0807 78.5099 33.5117 78.83 33.1384C79.15 32.765 79.719 32.7294 80.0924 33.0495C83.6306 36.0898 88.8579 39.9125 92.805 42.3662C93.2139 42.6329 93.3562 43.1662 93.0895 43.593C92.8939 43.8597 92.6094 44.0197 92.3072 44.0197Z" fill="white"/>
<path d="M94.8678 59.8616C94.6722 59.8616 94.4766 59.7905 94.3166 59.666C93.9432 59.3638 93.8721 58.7948 94.1744 58.4214C98.3171 53.3008 102.762 46.1177 105.518 40.1437C105.731 39.6992 106.247 39.5036 106.691 39.7169C107.136 39.9303 107.332 40.4459 107.118 40.8904C104.309 46.9889 99.7573 54.3143 95.5434 59.5416C95.3834 59.7549 95.1167 59.8616 94.8678 59.8616Z" fill="white"/>
<path d="M95.4722 72.8587C93.3919 72.8587 90.6005 72.3431 88.9647 71.6141C84.1108 69.445 79.7014 66.5113 75.8431 62.8842C75.4875 62.5464 75.4698 61.9774 75.8076 61.6218C76.1454 61.2662 76.7144 61.2484 77.07 61.5863C80.786 65.0889 85.0354 67.9159 89.7115 69.9962C91.3828 70.7429 94.7077 71.2585 96.4145 71.0274C96.9124 70.9741 97.3391 71.3119 97.4102 71.7919C97.4813 72.272 97.1257 72.7165 96.6457 72.7876C96.2723 72.8409 95.8811 72.8587 95.4722 72.8587Z" fill="white"/>
<path d="M203.783 93.6721C203.783 93.6721 198.205 85.1954 199.043 75.6881C199.88 66.1808 206.313 53.3681 205.779 43.2211C205.262 33.074 202.179 15.6943 190.435 17.347C178.71 18.9997 187.192 31.4214 180.652 33.074C174.13 34.7267 171.083 21.4876 169.087 12.7977C167.091 4.10784 157.112 -32.5886 139.274 -28.7146C121.436 -24.8406 134.035 7.43096 143.907 20.6701C153.797 33.9093 135.941 21.9141 129.508 17.3648C123.093 12.8155 114.272 13.1176 115.056 21.5053C115.858 30.2307 145.119 51.289 142.606 58.5394C140.093 65.7721 131.647 50.2227 118.709 50.7025C105.772 51.1823 109.211 71.1566 125.481 76.9498C141.751 82.7431 138.098 96 138.098 96L203.783 93.6721Z" fill="#82BAC5"/>
<path d="M-27.5284 177.653C-27.5284 177.653 -125.765 124.009 119.09 82.8196C363.945 41.6304 414.432 154.778 586.065 130.254C757.699 105.73 830.92 174.39 634.061 199.581C437.201 224.772 290.197 233.929 242.377 199.581C194.557 165.233 66.3227 192.354 -27.5284 177.653Z" fill="#A9CF37"/>
<path d="M286.626 144.041C316.725 144.041 341.126 140.235 341.126 135.541C341.126 130.846 316.725 127.041 286.626 127.041C256.526 127.041 232.126 130.846 232.126 135.541C232.126 140.235 256.526 144.041 286.626 144.041Z" fill="#8DAD1A"/>
<path d="M346.067 70.862C347.756 46.9915 337.827 26.8409 323.888 25.8544C309.95 24.8679 297.281 43.4191 295.592 67.2896C293.902 91.1601 303.832 111.311 317.77 112.297C331.709 113.284 344.377 94.7325 346.067 70.862Z" fill="#C9EA53"/>
<path d="M316.004 139.12C315.968 139.12 315.933 139.12 315.897 139.12C315.417 139.066 315.061 138.622 315.115 138.124C317.479 117.908 318.884 97.3546 319.293 77.0322L315.915 75.5386C315.577 75.3964 315.381 75.0586 315.381 74.703L316.075 53.4026C316.093 52.9226 316.484 52.5492 316.964 52.5492C316.964 52.5492 316.982 52.5492 316.999 52.5492C317.497 52.567 317.871 52.9759 317.853 53.4738L317.177 74.1696L320.555 75.6631C320.875 75.8053 321.089 76.1254 321.089 76.4988C320.698 97.0879 319.275 117.908 316.875 138.355C316.839 138.782 316.448 139.12 316.004 139.12Z" fill="white"/>
<path d="M320.057 91.3094C319.648 91.3094 319.275 91.025 319.186 90.616C319.079 90.136 319.382 89.6559 319.862 89.567C323.222 88.838 326.422 87.3445 329.161 85.2465C329.463 85.0153 329.783 84.7486 329.925 84.4819C330.05 84.233 330.067 83.8774 330.085 83.5396L331.472 63.715C331.507 63.2171 331.934 62.8438 332.414 62.8971C332.912 62.9327 333.268 63.3594 333.232 63.8395L331.845 83.6641C331.81 84.1263 331.774 84.6953 331.507 85.2465C331.205 85.8865 330.69 86.3133 330.227 86.6689C327.294 88.9269 323.844 90.5271 320.235 91.3094C320.182 91.2917 320.111 91.3094 320.057 91.3094Z" fill="white"/>
<path d="M306.74 67.1109C308.351 67.1109 309.656 65.8054 309.656 64.195C309.656 62.5846 308.351 61.2791 306.74 61.2791C305.13 61.2791 303.824 62.5846 303.824 64.195C303.824 65.8054 305.13 67.1109 306.74 67.1109Z" fill="#FFCC33"/>
<path d="M312.27 85.0331C313.881 85.0331 315.186 83.7276 315.186 82.1172C315.186 80.5068 313.881 79.2013 312.27 79.2013C310.66 79.2013 309.354 80.5068 309.354 82.1172C309.354 83.7276 310.66 85.0331 312.27 85.0331Z" fill="#FFCC33"/>
<path d="M327.169 102.582C328.78 102.582 330.085 101.276 330.085 99.666C330.085 98.0556 328.78 96.7501 327.169 96.7501C325.559 96.7501 324.253 98.0556 324.253 99.666C324.253 101.276 325.559 102.582 327.169 102.582Z" fill="#FFCC33"/>
<path d="M327.169 49.5977C328.78 49.5977 330.085 48.2922 330.085 46.6818C330.085 45.0714 328.78 43.7659 327.169 43.7659C325.559 43.7659 324.253 45.0714 324.253 46.6818C324.253 48.2922 325.559 49.5977 327.169 49.5977Z" fill="#FFCC33"/>
<path d="M339.099 77.0855C340.71 77.0855 342.015 75.78 342.015 74.1696C342.015 72.5592 340.71 71.2537 339.099 71.2537C337.489 71.2537 336.184 72.5592 336.184 74.1696C336.184 75.78 337.489 77.0855 339.099 77.0855Z" fill="#FFCC33"/>
<path d="M311.716 67.2121C312.62 43.2986 302.034 23.4846 288.071 22.9564C274.107 22.4282 262.054 41.3858 261.15 65.2994C260.245 89.213 270.831 109.027 284.795 109.555C298.758 110.083 310.811 91.1257 311.716 67.2121Z" fill="#C9EA53"/>
<path d="M283.894 136.435C283.876 136.435 283.84 136.435 283.823 136.435C283.325 136.399 282.969 135.973 283.005 135.475C284.712 115.188 285.441 94.6165 285.174 74.2763L281.742 72.8894C281.404 72.7472 281.191 72.4272 281.191 72.0716L281.173 50.7534C281.173 50.2556 281.564 49.8644 282.062 49.8644C282.56 49.8644 282.951 50.2556 282.951 50.7534L282.969 71.467L286.383 72.8361C286.721 72.9783 286.934 73.2984 286.934 73.654C287.218 94.2431 286.49 115.099 284.765 135.617C284.729 136.079 284.338 136.435 283.894 136.435Z" fill="white"/>
<path d="M286.383 88.518C285.991 88.518 285.618 88.2513 285.529 87.8424C285.405 87.3623 285.689 86.8823 286.169 86.7578C289.494 85.9221 292.659 84.3219 295.308 82.135C295.61 81.8861 295.913 81.6194 296.037 81.3349C296.144 81.086 296.162 80.7304 296.162 80.3926L296.891 60.5324C296.908 60.0346 297.228 59.6612 297.815 59.679C298.313 59.6967 298.686 60.1057 298.669 60.6035L297.94 80.4637C297.922 80.926 297.904 81.4949 297.655 82.0639C297.371 82.704 296.873 83.1485 296.428 83.5218C293.584 85.8688 290.17 87.5934 286.596 88.5002C286.525 88.5002 286.454 88.518 286.383 88.518Z" fill="white"/>
<path d="M272.212 64.764C273.822 64.764 275.128 63.4585 275.128 61.8481C275.128 60.2377 273.822 58.9322 272.212 58.9322C270.601 58.9322 269.296 60.2377 269.296 61.8481C269.296 63.4585 270.601 64.764 272.212 64.764Z" fill="#FFCC33"/>
<path d="M278.328 82.4906C279.938 82.4906 281.244 81.1851 281.244 79.5747C281.244 77.9643 279.938 76.6588 278.328 76.6588C276.718 76.6588 275.412 77.9643 275.412 79.5747C275.412 81.1851 276.718 82.4906 278.328 82.4906Z" fill="#FFCC33"/>
<path d="M293.779 99.5415C295.389 99.5415 296.695 98.236 296.695 96.6256C296.695 95.0152 295.389 93.7097 293.779 93.7097C292.168 93.7097 290.863 95.0152 290.863 96.6256C290.863 98.236 292.168 99.5415 293.779 99.5415Z" fill="#FFCC33"/>
<path d="M292.036 46.5929C293.646 46.5929 294.952 45.2874 294.952 43.677C294.952 42.0666 293.646 40.7611 292.036 40.7611C290.426 40.7611 289.12 42.0666 289.12 43.677C289.12 45.2874 290.426 46.5929 292.036 46.5929Z" fill="#FFCC33"/>
<path d="M304.873 73.6718C306.484 73.6718 307.789 72.3663 307.789 70.7559C307.789 69.1455 306.484 67.84 304.873 67.84C303.263 67.84 301.958 69.1455 301.958 70.7559C301.958 72.3663 303.263 73.6718 304.873 73.6718Z" fill="#FFCC33"/>
<path d="M253.124 110.843C263.808 110.395 271.847 95.1987 271.079 76.9016C270.312 58.6046 261.029 44.1351 250.345 44.5832C239.661 45.0312 231.622 60.2272 232.389 78.5242C233.157 96.8213 242.44 111.291 253.124 110.843Z" fill="#C9EA53"/>
<path d="M254.04 131.617C253.542 131.617 253.151 131.208 253.151 130.728C253.222 115.206 252.529 99.506 251.089 84.0552L248.528 83.2551C248.191 83.1485 247.942 82.8462 247.906 82.4728L246.59 66.222C246.555 65.7241 246.91 65.2974 247.408 65.2618C247.906 65.2441 248.333 65.5819 248.368 66.0797L249.631 81.7438L252.191 82.5439C252.529 82.6506 252.778 82.9529 252.813 83.3085C254.289 99.0081 255 114.957 254.929 130.745C254.929 131.225 254.538 131.617 254.04 131.617Z" fill="white"/>
<path d="M253.009 94.901C252.636 94.901 252.298 94.6698 252.174 94.2965C252.014 93.8342 252.262 93.3363 252.725 93.1763C255.178 92.3407 257.472 90.9538 259.339 89.1403C259.534 88.9625 259.73 88.7491 259.801 88.5713C259.854 88.4113 259.854 88.1624 259.837 87.9135L259.179 72.7116C259.161 72.2138 259.534 71.8048 260.032 71.787C260.566 71.787 260.939 72.1427 260.957 72.6405L261.615 87.8423C261.632 88.2157 261.65 88.678 261.49 89.1581C261.295 89.7092 260.921 90.1004 260.583 90.4204C258.521 92.4118 256.014 93.9409 253.294 94.8654C253.205 94.8832 253.116 94.901 253.009 94.901Z" fill="white"/>
<path d="M240.634 77.4411C241.861 77.4411 242.856 76.446 242.856 75.2186C242.856 73.9911 241.861 72.9961 240.634 72.9961C239.406 72.9961 238.411 73.9911 238.411 75.2186C238.411 76.446 239.406 77.4411 240.634 77.4411Z" fill="#FFCC33"/>
<path d="M246.378 90.5982C247.605 90.5982 248.6 89.6032 248.6 88.3758C248.6 87.1483 247.605 86.1533 246.378 86.1533C245.15 86.1533 244.155 87.1483 244.155 88.3758C244.155 89.6032 245.15 90.5982 246.378 90.5982Z" fill="#FFCC33"/>
<path d="M259.214 102.653C260.442 102.653 261.437 101.658 261.437 100.431C261.437 99.2031 260.442 98.2081 259.214 98.2081C257.987 98.2081 256.992 99.2031 256.992 100.431C256.992 101.658 257.987 102.653 259.214 102.653Z" fill="#FFCC33"/>
<path d="M254.662 62.3637C255.89 62.3637 256.885 61.3687 256.885 60.1412C256.885 58.9138 255.89 57.9188 254.662 57.9188C253.435 57.9188 252.44 58.9138 252.44 60.1412C252.44 61.3687 253.435 62.3637 254.662 62.3637Z" fill="#FFCC33"/>
<path d="M266.095 82.2417C267.323 82.2417 268.318 81.2466 268.318 80.0192C268.318 78.7917 267.323 77.7967 266.095 77.7967C264.868 77.7967 263.873 78.7917 263.873 80.0192C263.873 81.2466 264.868 82.2417 266.095 82.2417Z" fill="#FFCC33"/>
</g>
</g>
<defs>
<clipPath id="clip0">
<rect width="798.84" height="581" fill="white" transform="translate(-47 -359)"/>
</clipPath>
</defs>
</svg>
