<svg width="100%" height="100%" viewBox="0 0 20 19" fill="none" xmlns="http://www.w3.org/2000/svg">
<g clip-path="url(#clip0)">
<path d="M19.1028 10.6973L14.1181 5.63C13.5995 5.10272 12.9137 4.78099 12.1841 4.72737L8.92254 4.47714C8.01704 4.40564 7.12913 4.74524 6.49616 5.40658C6.29397 5.61213 6.12693 5.84449 5.99507 6.09473C5.54671 5.75512 5.17748 5.24572 5.02803 4.48607C4.34232 1.12577 0.817044 0.0622721 0.667593 0.0175873C0.395066 -0.0628454 0.104956 0.106957 0.017044 0.384003C-0.0708681 0.661049 0.0961649 0.964906 0.377484 1.04534C0.403857 1.05428 3.43682 1.97478 3.99067 4.69162C4.21045 5.773 4.78188 6.60413 5.64342 7.14035C5.60825 7.38165 5.59946 7.63189 5.62583 7.88212L5.93353 11.0905C6.00386 11.8055 6.32034 12.4847 6.82144 12.9941L11.8236 18.0792C12.4214 18.6869 13.2039 18.9908 13.9951 18.9908C14.7863 18.9908 15.5687 18.6869 16.1665 18.0792L19.094 15.1032C20.2984 13.8967 20.2984 11.9127 19.1028 10.6973ZM18.3555 14.3525L15.428 17.3285C14.6456 18.1239 13.3709 18.1239 12.5797 17.3285L7.56869 12.2434C7.24342 11.9127 7.03243 11.4658 6.98847 10.9922L6.68078 7.78381C6.67199 7.72126 6.67199 7.66763 6.67199 7.60507C7.10276 7.73913 7.51594 7.79275 7.8588 7.81956C7.71814 8.35578 7.8588 8.95456 8.27199 9.3746C8.57968 9.68739 8.99287 9.84825 9.39726 9.84825C9.80166 9.84825 10.2148 9.68739 10.5225 9.3746C11.1467 8.74007 11.1467 7.72126 10.5225 7.08673C10.039 6.5952 9.32693 6.48795 8.73792 6.75606C8.69397 6.74713 8.6588 6.74713 8.61485 6.75606C8.55331 6.765 7.7621 6.8365 6.93572 6.56839C7.02364 6.41646 7.12034 6.2824 7.24342 6.15729C7.62144 5.76406 8.14012 5.54064 8.67638 5.54064C8.72913 5.54064 8.78188 5.54064 8.83463 5.54957L12.0962 5.79981C12.5709 5.83556 13.028 6.05004 13.3621 6.38965L18.3467 11.4569C19.1379 12.2523 19.1379 13.5571 18.3555 14.3525ZM9.39726 7.68551C9.53792 7.68551 9.66979 7.73913 9.77528 7.84637C9.98627 8.06086 9.98627 8.40047 9.77528 8.61495C9.5643 8.82944 9.23023 8.82944 9.01924 8.61495C8.80825 8.40047 8.80825 8.06086 9.01924 7.84637C9.12474 7.73913 9.2566 7.68551 9.39726 7.68551Z" fill="#828282"/>
</g>
<defs>
<clipPath id="clip0">
<rect width="20" height="19" fill="white"/>
</clipPath>
</defs>
</svg>
