<svg width="18" height="20" viewBox="0 0 18 20" fill="none" xmlns="http://www.w3.org/2000/svg">
<g clip-path="url(#clip0)">
<path d="M17.4685 1.85586H13.6063H11.7106V0.540541C11.7106 0.243243 11.4715 0 11.1791 0H6.82973C6.53741 0 6.29823 0.243243 6.29823 0.540541V1.85586H4.3937H0.531496C0.239173 1.85586 0 2.0991 0 2.3964C0 2.69369 0.239173 2.93694 0.531496 2.93694H2.10827C1.66536 3.46847 1.39961 4.15315 1.39961 4.90991V16.9459C1.39961 18.6306 2.74606 20 4.40256 20H13.6152C15.2717 20 16.6181 18.6306 16.6181 16.9459V4.90991C16.6181 4.16216 16.3524 3.46847 15.9095 2.93694H17.4862C17.7786 2.93694 18.0177 2.69369 18.0177 2.3964C18.0177 2.0991 17.7608 1.85586 17.4685 1.85586ZM7.36123 1.08108H10.6476V1.85586H7.36123V1.08108ZM15.5463 4.90991V16.9459C15.5463 18.036 14.6782 18.9189 13.6063 18.9189H4.3937C3.32185 18.9189 2.45374 18.036 2.45374 16.9459V4.90991C2.45374 3.81982 3.32185 2.93694 4.3937 2.93694H6.82087H11.1703H13.5975C14.6782 2.93694 15.5463 3.81982 15.5463 4.90991Z" fill="#F3776D"/>
<path d="M8.95581 5.1532C8.66349 5.1532 8.42432 5.39644 8.42432 5.69374V16.1622C8.42432 16.4595 8.66349 16.7027 8.95581 16.7027C9.24813 16.7027 9.4873 16.4595 9.4873 16.1622V5.69374C9.4873 5.39644 9.24813 5.1532 8.95581 5.1532Z" fill="#F3776D"/>
<path d="M12.8713 16.7027C13.1637 16.7027 13.4028 16.4595 13.4028 16.1622V5.69374C13.4028 5.39644 13.1637 5.1532 12.8713 5.1532C12.579 5.1532 12.3398 5.39644 12.3398 5.69374V16.1622C12.3398 16.4595 12.579 16.7027 12.8713 16.7027Z" fill="#F3776D"/>
<path d="M5.12866 5.1532C4.83634 5.1532 4.59717 5.39644 4.59717 5.69374V16.1622C4.59717 16.4595 4.83634 16.7027 5.12866 16.7027C5.42099 16.7027 5.66016 16.4595 5.66016 16.1622V5.69374C5.66016 5.39644 5.42099 5.1532 5.12866 5.1532Z" fill="#F3776D"/>
</g>
<defs>
<clipPath id="clip0">
<rect width="18" height="20" fill="white"/>
</clipPath>
</defs>
</svg>
